<?xml version="1.0" standalone="no"?>
<!DOCTYPE svg PUBLIC "-//W3C//DTD SVG 20010904//EN"
 "http://www.w3.org/TR/2001/REC-SVG-20010904/DTD/svg10.dtd">
<svg version="1.0" xmlns="http://www.w3.org/2000/svg"
 width="1920.000000pt" height="1080.000000pt" viewBox="0 0 1920.000000 1080.000000"
 preserveAspectRatio="xMidYMid meet">

<g transform="translate(0.000000,1080.000000) scale(0.100000,-0.100000)"
fill="#000000" stroke="none">
<path d="M0 5400 l0 -5400 9600 0 9600 0 0 5400 0 5400 -9600 0 -9600 0 0
-5400z m5715 5360 c3 -5 1 -10 -4 -10 -6 0 -11 5 -11 10 0 6 2 10 4 10 3 0 8
-4 11 -10z m-250 -90 c-3 -5 -12 -10 -18 -10 -7 0 -6 4 3 10 19 12 23 12 15 0z
m1840 -1 c11 -17 -1 -21 -15 -4 -8 9 -8 15 -2 15 6 0 14 -5 17 -11z m-685 -9
c0 -5 -4 -10 -10 -10 -5 0 -10 5 -10 10 0 6 5 10 10 10 6 0 10 -4 10 -10z
m-175 -30 c3 -5 -1 -10 -10 -10 -9 0 -13 5 -10 10 3 6 8 10 10 10 2 0 7 -4 10
-10z m309 -16 c3 -8 2 -12 -4 -9 -6 3 -10 10 -10 16 0 14 7 11 14 -7z m-34
-14 c0 -5 -4 -10 -10 -10 -5 0 -10 5 -10 10 0 6 5 10 10 10 6 0 10 -4 10 -10z
m-1710 -30 c0 -5 -4 -10 -10 -10 -5 0 -10 5 -10 10 0 6 5 10 10 10 6 0 10 -4
10 -10z m2865 0 c3 -5 1 -10 -4 -10 -6 0 -11 5 -11 10 0 6 2 10 4 10 3 0 8 -4
11 -10z m-4190 -20 c-3 -5 -10 -10 -16 -10 -5 0 -9 5 -9 10 0 6 7 10 16 10 8
0 12 -4 9 -10z m1670 -40 c3 -5 -1 -10 -9 -10 -9 0 -16 5 -16 10 0 6 4 10 9
10 6 0 13 -4 16 -10z m-475 -10 c0 -5 -5 -10 -11 -10 -5 0 -7 5 -4 10 3 6 8
10 11 10 2 0 4 -4 4 -10z m-460 -4 c0 -3 -4 -8 -10 -11 -5 -3 -10 -1 -10 4 0
6 5 11 10 11 6 0 10 -2 10 -4z m1187 -18 c-3 -8 -6 -5 -6 6 -1 11 2 17 5 13 3
-3 4 -12 1 -19z m3897 -39 c-3 -5 -10 -7 -15 -3 -5 3 -7 10 -3 15 3 5 10 7 15
3 5 -3 7 -10 3 -15z m-4229 2 c3 -5 1 -12 -5 -16 -5 -3 -10 1 -10 9 0 18 6 21
15 7z m1442 -17 c-9 -9 -28 6 -21 18 4 6 10 6 17 -1 6 -6 8 -13 4 -17z m1553
16 c0 -5 -5 -10 -11 -10 -5 0 -7 5 -4 10 3 6 8 10 11 10 2 0 4 -4 4 -10z
m-3396 -16 c3 -8 2 -12 -4 -9 -6 3 -10 10 -10 16 0 14 7 11 14 -7z m1216 -4
c0 -5 -5 -10 -11 -10 -5 0 -7 5 -4 10 3 6 8 10 11 10 2 0 4 -4 4 -10z m-605
-29 c3 -5 1 -12 -5 -16 -5 -3 -10 1 -10 9 0 18 6 21 15 7z m1350 -1 c3 -5 1
-10 -4 -10 -6 0 -11 5 -11 10 0 6 2 10 4 10 3 0 8 -4 11 -10z m-635 -4 c0 -3
-4 -8 -10 -11 -5 -3 -10 -1 -10 4 0 6 5 11 10 11 6 0 10 -2 10 -4z m1160 -16
c0 -5 -4 -10 -10 -10 -5 0 -10 5 -10 10 0 6 5 10 10 10 6 0 10 -4 10 -10z
m-1789 -23 c-13 -13 -26 -3 -16 12 3 6 11 8 17 5 6 -4 6 -10 -1 -17z m164 13
c3 -5 -1 -10 -10 -10 -9 0 -13 5 -10 10 3 6 8 10 10 10 2 0 7 -4 10 -10z m935
-1 c0 -11 -21 -11 -39 0 -9 6 -5 9 13 9 14 0 26 -4 26 -9z m-3600 -19 c0 -5
-4 -10 -10 -10 -5 0 -10 5 -10 10 0 6 5 10 10 10 6 0 10 -4 10 -10z m3030 -14
c0 -3 -4 -8 -10 -11 -5 -3 -10 -1 -10 4 0 6 5 11 10 11 6 0 10 -2 10 -4z
m1330 -16 c0 -5 -4 -10 -10 -10 -5 0 -10 5 -10 10 0 6 5 10 10 10 6 0 10 -4
10 -10z m-1695 -10 c3 -5 -1 -10 -9 -10 -9 0 -16 5 -16 10 0 6 4 10 9 10 6 0
13 -4 16 -10z m1325 0 c0 -5 -4 -10 -10 -10 -5 0 -10 5 -10 10 0 6 5 10 10 10
6 0 10 -4 10 -10z m-500 -4 c0 -3 -4 -8 -10 -11 -5 -3 -10 -1 -10 4 0 6 5 11
10 11 6 0 10 -2 10 -4z m-1430 -26 c0 -5 -4 -10 -10 -10 -5 0 -10 5 -10 10 0
6 5 10 10 10 6 0 10 -4 10 -10z m1790 -10 c0 -5 -2 -10 -4 -10 -3 0 -8 5 -11
10 -3 6 -1 10 4 10 6 0 11 -4 11 -10z m-2280 -10 c0 -5 -4 -10 -10 -10 -5 0
-10 5 -10 10 0 6 5 10 10 10 6 0 10 -4 10 -10z m1100 -11 c0 -5 -7 -9 -15 -9
-15 0 -20 12 -9 23 8 8 24 -1 24 -14z m975 11 c3 -5 2 -10 -4 -10 -5 0 -13 5
-16 10 -3 6 -2 10 4 10 5 0 13 -4 16 -10z m-455 -15 c0 -8 5 -15 12 -15 9 0 9
-3 1 -11 -14 -14 -48 14 -38 31 9 15 25 12 25 -5z m-1360 -35 c0 -5 -2 -10 -4
-10 -3 0 -8 5 -11 10 -3 6 -1 10 4 10 6 0 11 -4 11 -10z m588 -9 c3 -8 -1 -12
-9 -9 -7 2 -15 10 -17 17 -3 8 1 12 9 9 7 -2 15 -10 17 -17z m-778 -1 c0 -5
-2 -10 -4 -10 -3 0 -8 5 -11 10 -3 6 -1 10 4 10 6 0 11 -4 11 -10z m270 0 c0
-5 -2 -10 -4 -10 -3 0 -8 5 -11 10 -3 6 -1 10 4 10 6 0 11 -4 11 -10z m1135 0
c3 -5 2 -10 -4 -10 -5 0 -13 5 -16 10 -3 6 -2 10 4 10 5 0 13 -4 16 -10z m355
6 c0 -3 -4 -8 -10 -11 -5 -3 -10 -1 -10 4 0 6 5 11 10 11 6 0 10 -2 10 -4z
m-1402 -26 c7 -11 9 -20 4 -20 -4 0 -13 9 -20 20 -7 11 -9 20 -4 20 4 0 13 -9
20 -20z m1272 5 c-14 -17 -30 -20 -30 -6 0 5 8 12 18 14 9 3 19 5 21 6 2 0 -2
-6 -9 -14z m-1540 -5 c0 -5 -2 -10 -4 -10 -3 0 -8 5 -11 10 -3 6 -1 10 4 10 6
0 11 -4 11 -10z m1145 0 c3 -5 -1 -10 -9 -10 -9 0 -16 5 -16 10 0 6 4 10 9 10
6 0 13 -4 16 -10z m490 0 c3 -5 -1 -10 -10 -10 -9 0 -13 5 -10 10 3 6 8 10 10
10 2 0 7 -4 10 -10z m745 0 c0 -5 -5 -10 -11 -10 -5 0 -7 5 -4 10 3 6 8 10 11
10 2 0 4 -4 4 -10z m-1606 -21 c-7 -11 -34 -12 -34 -1 0 14 11 21 26 15 8 -3
11 -9 8 -14z m566 1 c0 -5 -4 -10 -10 -10 -5 0 -10 5 -10 10 0 6 5 10 10 10 6
0 10 -4 10 -10z m-1716 -16 c4 -10 1 -14 -6 -12 -15 5 -23 28 -10 28 5 0 13
-7 16 -16z m580 1 c3 -8 1 -15 -4 -15 -6 0 -10 7 -10 15 0 8 2 15 4 15 2 0 6
-7 10 -15z m1771 4 c4 -6 5 -12 2 -15 -7 -7 -37 7 -37 17 0 13 27 11 35 -2z
m-450 -9 c3 -5 1 -10 -4 -10 -6 0 -11 5 -11 10 0 6 2 10 4 10 3 0 8 -4 11 -10z
m-2015 -10 c0 -5 -2 -10 -4 -10 -3 0 -8 5 -11 10 -3 6 -1 10 4 10 6 0 11 -4
11 -10z m3195 0 c3 -5 -1 -10 -9 -10 -9 0 -16 5 -16 10 0 6 4 10 9 10 6 0 13
-4 16 -10z m-1465 -20 c0 -11 -4 -20 -10 -20 -5 0 -10 9 -10 20 0 11 5 20 10
20 6 0 10 -9 10 -20z m343 13 c-7 -2 -19 -2 -25 0 -7 3 -2 5 12 5 14 0 19 -2
13 -5z m-722 -26 c-1 -12 -15 -9 -19 4 -3 6 1 10 8 8 6 -3 11 -8 11 -12z
m2759 3 c0 -5 -4 -10 -10 -10 -5 0 -10 5 -10 10 0 6 5 10 10 10 6 0 10 -4 10
-10z m-3525 -10 c3 -5 2 -10 -4 -10 -5 0 -13 5 -16 10 -3 6 -2 10 4 10 5 0 13
-4 16 -10z m1175 6 c0 -3 -4 -8 -10 -11 -5 -3 -10 -1 -10 4 0 6 5 11 10 11 6
0 10 -2 10 -4z m280 -6 c0 -5 -2 -10 -4 -10 -3 0 -8 5 -11 10 -3 6 -1 10 4 10
6 0 11 -4 11 -10z m305 0 c3 -5 -1 -10 -10 -10 -9 0 -13 5 -10 10 3 6 8 10 10
10 2 0 7 -4 10 -10z m-705 -15 c0 -8 -7 -15 -16 -15 -14 0 -14 3 -4 15 7 8 14
15 16 15 2 0 4 -7 4 -15z m630 11 c0 -3 -4 -8 -10 -11 -5 -3 -10 -1 -10 4 0 6
5 11 10 11 6 0 10 -2 10 -4z m-1280 -14 c0 -13 -12 -22 -22 -16 -10 6 -1 24
13 24 5 0 9 -4 9 -8z m60 -2 c0 -5 -4 -10 -10 -10 -5 0 -10 5 -10 10 0 6 5 10
10 10 6 0 10 -4 10 -10z m68 -12 c-2 -6 -10 -14 -16 -16 -7 -2 -10 2 -6 12 7
18 28 22 22 4z m852 2 c0 -5 -5 -10 -11 -10 -5 0 -7 5 -4 10 3 6 8 10 11 10 2
0 4 -4 4 -10z m-450 -36 c0 -7 -4 -15 -9 -19 -5 -3 2 -17 16 -31 26 -26 51
-26 73 1 14 17 41 9 33 -11 -7 -20 4 -17 30 6 19 18 23 19 33 5 14 -19 25 -20
18 -1 -8 20 14 30 32 15 11 -9 18 -9 26 -1 20 20 48 14 48 -10 1 -21 2 -21 11
-5 12 21 41 23 33 2 -7 -18 7 -20 24 -3 9 9 12 9 12 -2 0 -8 9 -1 19 16 10 17
25 31 32 32 8 0 23 2 33 4 10 2 21 -3 24 -11 3 -10 -2 -12 -21 -8 -16 5 -29 2
-37 -8 -17 -20 -6 -30 35 -30 27 0 35 5 40 23 7 27 25 29 25 3 0 -11 5 -23 11
-27 8 -5 10 1 5 19 -8 33 2 38 38 18 30 -17 36 -36 12 -36 -8 0 -18 -4 -22 -8
-4 -4 9 -7 30 -7 20 0 47 -6 59 -14 26 -17 77 -10 77 10 0 8 5 14 10 14 6 0
10 -13 10 -30 0 -26 4 -30 26 -30 14 0 23 -4 19 -9 -3 -5 -1 -12 4 -15 5 -4
12 -2 16 4 9 15 25 12 25 -6 0 -8 5 -12 10 -9 6 3 10 1 10 -4 0 -6 -4 -11 -10
-11 -5 0 -10 -4 -10 -10 0 -5 7 -10 15 -10 8 0 15 -4 15 -10 0 -5 7 -7 15 -4
10 4 15 0 15 -10 0 -9 11 -21 24 -26 18 -7 22 -14 19 -34 -5 -22 -2 -26 18
-26 23 -1 23 -1 5 -15 -11 -8 -14 -15 -8 -15 17 0 15 -26 -3 -43 -8 -8 -12
-17 -9 -20 10 -9 34 4 34 19 0 8 7 14 16 14 13 0 14 -3 5 -14 -10 -11 -8 -17
6 -25 16 -9 16 -10 -4 -11 -13 0 -23 -4 -23 -10 0 -5 5 -10 10 -10 6 0 10 -7
10 -15 0 -8 -8 -15 -18 -15 -30 0 -44 -21 -24 -36 25 -19 13 -27 -52 -33 -4
-1 -6 -9 -4 -19 4 -15 0 -18 -21 -15 -25 4 -26 4 -6 -12 17 -14 18 -17 5 -25
-24 -15 -30 -12 -31 18 -1 16 -3 20 -6 10 -5 -21 -37 -32 -69 -24 -13 4 -24 2
-24 -2 0 -5 -11 -7 -25 -4 -21 4 -24 1 -20 -14 4 -12 1 -11 -6 4 -13 24 -34
31 -25 7 6 -17 -9 -21 -19 -5 -11 17 -23 11 -18 -9 6 -23 -14 -38 -30 -22 -8
8 -8 11 1 11 7 0 12 5 12 10 0 6 -10 8 -24 4 -13 -3 -27 -1 -30 5 -4 6 0 11 8
11 9 0 16 4 16 9 0 6 -9 9 -20 8 -11 -1 -20 -5 -20 -9 0 -4 -6 -8 -14 -8 -8 0
-16 -5 -18 -12 -2 -6 -10 -8 -17 -4 -9 6 -8 11 4 20 14 10 8 12 -32 11 -40 0
-48 -3 -51 -20 -6 -29 -22 -43 -22 -18 0 32 -23 44 -84 44 -44 1 -59 5 -70 21
-9 12 -16 16 -21 9 -9 -16 -86 -14 -79 2 4 12 -4 15 -63 19 -16 2 -33 9 -40
18 -11 13 -12 12 -13 -7 0 -14 -6 -23 -16 -23 -11 0 -14 6 -9 20 5 15 3 18 -9
14 -10 -4 -16 -1 -16 9 0 15 -22 29 -50 32 -8 1 -20 3 -27 4 -6 0 -14 14 -18
31 -4 16 -12 33 -18 37 -7 5 -17 18 -24 30 -10 17 -10 23 0 26 7 3 4 6 -5 6
-10 1 -18 8 -18 16 0 8 -4 15 -10 15 -5 0 -10 -6 -10 -14 0 -8 5 -18 10 -21
17 -10 11 -25 -9 -25 -30 0 -35 50 -8 74 16 14 17 18 5 13 -10 -3 -20 -2 -23
3 -9 15 -25 12 -25 -5 0 -16 -16 -20 -24 -6 -3 5 1 12 10 15 12 5 15 14 10 36
-7 38 20 43 30 5 8 -33 26 -32 20 1 -4 20 0 27 14 31 22 6 26 33 8 51 -9 9 -9
12 3 12 8 0 28 14 44 30 19 20 31 26 36 18 5 -8 12 -7 24 5 15 16 15 18 -6 25
-20 8 -20 9 -5 15 13 5 16 14 12 31 -3 12 -3 25 -1 28 10 10 65 -5 65 -18z
m910 11 c0 -8 -4 -15 -10 -15 -5 0 -10 7 -10 15 0 8 5 15 10 15 6 0 10 -7 10
-15z m-1675 -5 c3 -5 -1 -10 -9 -10 -9 0 -16 5 -16 10 0 6 4 10 9 10 6 0 13
-4 16 -10z m1045 0 c0 -5 -7 -10 -15 -10 -8 0 -15 5 -15 10 0 6 7 10 15 10 8
0 15 -4 15 -10z m360 -5 c0 -8 -4 -15 -10 -15 -5 0 -10 7 -10 15 0 8 5 15 10
15 6 0 10 -7 10 -15z m-1870 -11 c0 -8 -5 -12 -10 -9 -6 4 -8 11 -5 16 9 14
15 11 15 -7z m285 6 c3 -5 1 -10 -4 -10 -6 0 -11 5 -11 10 0 6 2 10 4 10 3 0
8 -4 11 -10z m143 -8 c2 -7 -2 -10 -12 -6 -9 3 -16 11 -16 16 0 13 23 5 28
-10z m497 8 c3 -5 -1 -10 -9 -10 -9 0 -16 5 -16 10 0 6 4 10 9 10 6 0 13 -4
16 -10z m693 -8 c2 -7 -3 -12 -12 -12 -9 0 -16 7 -16 16 0 17 22 14 28 -4z
m-876 -7 c0 -5 -5 -11 -11 -13 -6 -2 -11 4 -11 13 0 9 5 15 11 13 6 -2 11 -8
11 -13z m285 -7 c-3 -8 -6 -5 -6 6 -1 11 2 17 5 13 3 -3 4 -12 1 -19z m269
-13 c-6 -17 -26 -20 -26 -5 0 16 24 40 28 29 2 -5 1 -16 -2 -24z m-426 15 c0
-5 -9 -10 -20 -10 -11 0 -20 5 -20 10 0 6 9 10 20 10 11 0 20 -4 20 -10z
m1030 -5 c0 -8 -7 -15 -15 -15 -26 0 -18 20 13 29 1 1 2 -6 2 -14z m50 11 c0
-2 -7 -6 -15 -10 -8 -3 -15 -1 -15 4 0 6 7 10 15 10 8 0 15 -2 15 -4z m117 -2
c-3 -3 -12 -4 -19 -1 -8 3 -5 6 6 6 11 1 17 -2 13 -5z m1703 -4 c0 -5 -2 -10
-4 -10 -3 0 -8 5 -11 10 -3 6 -1 10 4 10 6 0 11 -4 11 -10z m-6620 -4 c0 -3
-4 -8 -10 -11 -5 -3 -10 -1 -10 4 0 6 5 11 10 11 6 0 10 -2 10 -4z m2560 -16
c0 -5 -2 -10 -4 -10 -3 0 -8 5 -11 10 -3 6 -1 10 4 10 6 0 11 -4 11 -10z
m2308 -1 c-2 -6 -8 -10 -13 -10 -5 0 -11 4 -13 10 -2 6 4 11 13 11 9 0 15 -5
13 -11z m-1948 -9 c0 -5 -4 -10 -10 -10 -5 0 -10 5 -10 10 0 6 5 10 10 10 6 0
10 -4 10 -10z m1860 -20 c-9 -6 -19 -5 -25 1 -6 6 -5 13 5 19 9 6 19 5 25 -1
6 -6 5 -13 -5 -19z m358 11 c3 -8 -1 -12 -9 -9 -7 2 -15 10 -17 17 -3 8 1 12
9 9 7 -2 15 -10 17 -17z m-1180 -3 c-6 -18 -28 -21 -28 -4 0 9 7 16 16 16 9 0
14 -5 12 -12z m1562 -4 c0 -2 -7 -4 -15 -4 -8 0 -15 4 -15 10 0 5 7 7 15 4 8
-4 15 -8 15 -10z m-2500 -4 c0 -5 -4 -10 -10 -10 -5 0 -10 5 -10 10 0 6 5 10
10 10 6 0 10 -4 10 -10z m2170 0 c0 -5 -4 -10 -10 -10 -5 0 -10 5 -10 10 0 6
5 10 10 10 6 0 10 -4 10 -10z m-2220 -10 c0 -5 -4 -10 -10 -10 -5 0 -10 5 -10
10 0 6 5 10 10 10 6 0 10 -4 10 -10z m380 -10 c0 -5 -2 -10 -4 -10 -3 0 -8 5
-11 10 -3 6 -1 10 4 10 6 0 11 -4 11 -10z m160 0 c0 -5 -5 -10 -11 -10 -5 0
-7 5 -4 10 3 6 8 10 11 10 2 0 4 -4 4 -10z m1510 -5 c19 -23 8 -26 -19 -4 -16
13 -18 19 -8 19 8 0 20 -7 27 -15z m-1870 -5 c0 -5 -4 -10 -10 -10 -5 0 -10 5
-10 10 0 6 5 10 10 10 6 0 10 -4 10 -10z m1730 0 c0 -5 -4 -10 -10 -10 -5 0
-10 5 -10 10 0 6 5 10 10 10 6 0 10 -4 10 -10z m475 0 c3 -5 -1 -10 -9 -10 -9
0 -16 5 -16 10 0 6 4 10 9 10 6 0 13 -4 16 -10z m355 -10 c0 -5 -5 -10 -11
-10 -5 0 -7 5 -4 10 3 6 8 10 11 10 2 0 4 -4 4 -10z m-3005 -21 c-4 -5 -13 -9
-21 -9 -12 0 -12 2 -2 14 14 15 32 11 23 -5z m155 17 c0 -3 -4 -8 -10 -11 -5
-3 -10 -1 -10 4 0 6 5 11 10 11 6 0 10 -2 10 -4z m2280 -6 c0 -5 -4 -10 -10
-10 -5 0 -10 5 -10 10 0 6 5 10 10 10 6 0 10 -4 10 -10z m-3400 -4 c0 -3 -4
-8 -10 -11 -5 -3 -10 -1 -10 4 0 6 5 11 10 11 6 0 10 -2 10 -4z m1950 -17 c0
-5 -7 -9 -15 -9 -15 0 -20 12 -9 23 8 8 24 -1 24 -14z m190 5 c0 -8 -4 -12
-10 -9 -5 3 -10 10 -10 16 0 5 5 9 10 9 6 0 10 -7 10 -16z m-770 2 c0 -3 -4
-8 -10 -11 -5 -3 -10 -1 -10 4 0 6 5 11 10 11 6 0 10 -2 10 -4z m-60 -16 c0
-5 -2 -10 -4 -10 -3 0 -8 5 -11 10 -3 6 -1 10 4 10 6 0 11 -4 11 -10z m540 0
c0 -5 -4 -10 -10 -10 -5 0 -10 5 -10 10 0 6 5 10 10 10 6 0 10 -4 10 -10z
m150 1 c0 -5 -7 -11 -15 -15 -15 -5 -20 5 -8 17 9 10 23 9 23 -2z m1298 -11
c14 0 21 -4 16 -11 -3 -6 -17 -8 -29 -5 -13 3 -27 1 -30 -4 -5 -8 -11 -7 -21
1 -19 16 -6 32 20 25 11 -3 31 -6 44 -6z m197 1 c3 -5 1 -12 -5 -16 -5 -3 -10
1 -10 9 0 18 6 21 15 7z m-1932 -16 c4 -8 2 -17 -3 -20 -6 -4 -10 3 -10 14 0
25 6 27 13 6z m-523 1 c0 -3 -4 -8 -10 -11 -5 -3 -10 -1 -10 4 0 6 5 11 10 11
6 0 10 -2 10 -4z m40 -6 c0 -5 -5 -10 -11 -10 -5 0 -7 5 -4 10 3 6 8 10 11 10
2 0 4 -4 4 -10z m-2190 -20 c0 -5 -4 -10 -10 -10 -5 0 -10 5 -10 10 0 6 5 10
10 10 6 0 10 -4 10 -10z m1557 4 c-3 -3 -12 -4 -19 -1 -8 3 -5 6 6 6 11 1 17
-2 13 -5z m1613 -4 c0 -5 -7 -10 -15 -10 -8 0 -15 5 -15 10 0 6 7 10 15 10 8
0 15 -4 15 -10z m1360 0 c0 -5 -5 -10 -11 -10 -5 0 -7 5 -4 10 3 6 8 10 11 10
2 0 4 -4 4 -10z m-1800 -10 c0 -5 -5 -10 -11 -10 -5 0 -7 5 -4 10 3 6 8 10 11
10 2 0 4 -4 4 -10z m1698 -2 c-3 -7 -11 -13 -18 -13 -7 0 -15 6 -17 13 -3 7 4
12 17 12 13 0 20 -5 18 -12z m407 2 c-3 -5 -13 -10 -21 -10 -8 0 -12 5 -9 10
3 6 13 10 21 10 8 0 12 -4 9 -10z m-2721 -16 c5 -14 4 -15 -9 -4 -17 14 -19
20 -6 20 5 0 12 -7 15 -16z m516 -20 c0 -8 -5 -12 -10 -9 -6 4 -8 11 -5 16 9
14 15 11 15 -7z m-454 -31 c-10 -10 -19 5 -10 18 6 11 8 11 12 0 2 -7 1 -15
-2 -18z m549 17 c3 -5 -1 -10 -9 -10 -8 0 -18 5 -21 10 -3 6 1 10 9 10 8 0 18
-4 21 -10z m1725 -5 c0 -8 -7 -15 -15 -15 -8 0 -15 7 -15 15 0 8 7 15 15 15 8
0 15 -7 15 -15z m30 -15 c0 -11 -4 -20 -9 -20 -5 0 -7 9 -4 20 3 11 7 20 9 20
2 0 4 -9 4 -20z m-2052 -36 c-4 -3 -12 5 -18 18 -12 22 -12 22 6 6 10 -10 15
-20 12 -24z m542 26 c0 -5 -4 -10 -10 -10 -5 0 -10 5 -10 10 0 6 5 10 10 10 6
0 10 -4 10 -10z m1926 -2 c5 -7 2 -9 -8 -5 -9 3 -21 0 -27 -6 -6 -6 -14 -7
-18 -3 -8 8 15 26 34 26 6 0 15 -5 19 -12z m-3096 -2 c0 -11 -19 -15 -25 -6
-3 5 1 10 9 10 9 0 16 -2 16 -4z m2980 -5 c0 -5 -7 -12 -16 -15 -14 -5 -15 -4
-4 9 14 17 20 19 20 6z m-2650 -10 c0 -11 -31 -24 -39 -16 -3 3 1 10 9 15 19
12 30 12 30 1z m544 -16 c11 -8 18 -17 15 -19 -2 -3 -15 4 -29 14 -14 11 -20
20 -15 19 6 0 19 -6 29 -14z m-519 -5 c3 -5 1 -10 -4 -10 -6 0 -11 5 -11 10 0
6 2 10 4 10 3 0 8 -4 11 -10z m680 0 c3 -5 1 -10 -4 -10 -6 0 -11 5 -11 10 0
6 2 10 4 10 3 0 8 -4 11 -10z m1810 0 c3 -5 -1 -10 -9 -10 -9 0 -16 5 -16 10
0 6 4 10 9 10 6 0 13 -4 16 -10z m-2565 -10 c0 -5 -4 -10 -10 -10 -5 0 -10 5
-10 10 0 6 5 10 10 10 6 0 10 -4 10 -10z m2510 0 c0 -5 -13 -10 -29 -10 -17 0
-33 5 -36 10 -4 6 8 10 29 10 20 0 36 -4 36 -10z m795 0 c3 -5 1 -10 -4 -10
-6 0 -11 5 -11 10 0 6 2 10 4 10 3 0 8 -4 11 -10z m-2775 -10 c0 -5 -4 -10
-10 -10 -5 0 -10 5 -10 10 0 6 5 10 10 10 6 0 10 -4 10 -10z m2595 0 c3 -5 -1
-10 -10 -10 -9 0 -13 5 -10 10 3 6 8 10 10 10 2 0 7 -4 10 -10z m-2652 -20
c-5 -19 -23 -29 -23 -12 0 7 20 32 26 32 1 0 0 -9 -3 -20z m87 -5 c0 -8 -4
-15 -10 -15 -5 0 -10 7 -10 15 0 8 5 15 10 15 6 0 10 -7 10 -15z m-875 -5 c-3
-5 -12 -10 -18 -10 -7 0 -6 4 3 10 19 12 23 12 15 0z m550 0 c3 -5 -1 -10 -9
-10 -9 0 -16 5 -16 10 0 6 4 10 9 10 6 0 13 -4 16 -10z m905 2 c0 -13 -12 -22
-22 -16 -10 6 -1 24 13 24 5 0 9 -4 9 -8z m70 -8 c0 -8 -4 -12 -10 -9 -5 3
-10 10 -10 16 0 5 5 9 10 9 6 0 10 -7 10 -16z m-240 -4 c0 -5 -4 -10 -10 -10
-5 0 -10 5 -10 10 0 6 5 10 10 10 6 0 10 -4 10 -10z m1495 -10 c3 -5 -1 -10
-9 -10 -9 0 -16 5 -16 10 0 6 4 10 9 10 6 0 13 -4 16 -10z m385 6 c0 -3 -4 -8
-10 -11 -5 -3 -10 -1 -10 4 0 6 5 11 10 11 6 0 10 -2 10 -4z m160 -16 c0 -5
-4 -10 -10 -10 -5 0 -10 5 -10 10 0 6 5 10 10 10 6 0 10 -4 10 -10z m310 0 c0
-5 -4 -10 -10 -10 -5 0 -10 5 -10 10 0 6 5 10 10 10 6 0 10 -4 10 -10z m-3530
-10 c0 -5 -5 -10 -11 -10 -5 0 -7 5 -4 10 3 6 8 10 11 10 2 0 4 -4 4 -10z
m670 0 c0 -5 -4 -10 -10 -10 -5 0 -10 5 -10 10 0 6 5 10 10 10 6 0 10 -4 10
-10z m410 -20 c0 -5 -4 -10 -10 -10 -5 0 -10 5 -10 10 0 6 5 10 10 10 6 0 10
-4 10 -10z m1710 0 c0 -5 -5 -10 -11 -10 -5 0 -7 5 -4 10 3 6 8 10 11 10 2 0
4 -4 4 -10z m-2160 -10 c0 -5 -4 -10 -10 -10 -5 0 -10 5 -10 10 0 6 5 10 10
10 6 0 10 -4 10 -10z m660 0 c0 -5 -5 -10 -11 -10 -5 0 -7 5 -4 10 3 6 8 10
11 10 2 0 4 -4 4 -10z m2345 0 c3 -5 1 -10 -4 -10 -6 0 -11 5 -11 10 0 6 2 10
4 10 3 0 8 -4 11 -10z m-4685 -10 c0 -5 -4 -10 -10 -10 -5 0 -10 5 -10 10 0 6
5 10 10 10 6 0 10 -4 10 -10z m1370 0 c0 -5 -12 -10 -27 -9 -25 0 -26 1 -8 9
27 12 35 12 35 0z m860 0 c0 -5 -4 -10 -10 -10 -5 0 -10 5 -10 10 0 6 5 10 10
10 6 0 10 -4 10 -10z m211 -8 c-7 -2 -18 1 -23 6 -8 8 -4 9 13 5 13 -4 18 -8
10 -11z m1619 -2 l25 -20 -32 11 c-18 6 -33 15 -33 20 0 14 13 10 40 -11z
m490 5 c0 -8 -6 -15 -14 -15 -17 0 -28 14 -19 24 12 12 33 6 33 -9z m-3730 -5
c0 -5 -4 -10 -10 -10 -5 0 -10 5 -10 10 0 6 5 10 10 10 6 0 10 -4 10 -10z
m3820 0 c0 -5 -4 -10 -10 -10 -5 0 -10 5 -10 10 0 6 5 10 10 10 6 0 10 -4 10
-10z m-3535 -10 c3 -5 -1 -10 -10 -10 -9 0 -13 5 -10 10 3 6 8 10 10 10 2 0 7
-4 10 -10z m2522 4 c-3 -3 -12 -4 -19 -1 -8 3 -5 6 6 6 11 1 17 -2 13 -5z
m663 -4 c0 -5 -5 -10 -11 -10 -5 0 -7 5 -4 10 3 6 8 10 11 10 2 0 4 -4 4 -10z
m-2770 -10 c0 -5 -4 -10 -10 -10 -5 0 -10 5 -10 10 0 6 5 10 10 10 6 0 10 -4
10 -10z m4910 0 c0 -5 -4 -10 -10 -10 -5 0 -10 5 -10 10 0 6 5 10 10 10 6 0
10 -4 10 -10z m-2775 -10 c3 -5 1 -10 -4 -10 -6 0 -11 5 -11 10 0 6 2 10 4 10
3 0 8 -4 11 -10z m250 0 c3 -5 -1 -10 -9 -10 -9 0 -16 5 -16 10 0 6 4 10 9 10
6 0 13 -4 16 -10z m425 0 c0 -5 -4 -10 -10 -10 -5 0 -10 5 -10 10 0 6 5 10 10
10 6 0 10 -4 10 -10z m130 0 c0 -5 -4 -10 -10 -10 -5 0 -10 5 -10 10 0 6 5 10
10 10 6 0 10 -4 10 -10z m-2640 -15 c0 -8 -4 -15 -10 -15 -5 0 -10 7 -10 15 0
8 5 15 10 15 6 0 10 -7 10 -15z m140 0 c0 -8 -4 -15 -10 -15 -5 0 -10 7 -10
15 0 8 5 15 10 15 6 0 10 -7 10 -15z m1776 -22 c-10 -10 -19 5 -10 18 6 11 8
11 12 0 2 -7 1 -15 -2 -18z m54 7 c0 -5 -4 -10 -10 -10 -5 0 -10 5 -10 10 0 6
5 10 10 10 6 0 10 -4 10 -10z m660 0 c0 -5 -5 -10 -11 -10 -5 0 -7 5 -4 10 3
6 8 10 11 10 2 0 4 -4 4 -10z m-1710 -16 c0 -17 -22 -14 -28 4 -2 7 3 12 12
12 9 0 16 -7 16 -16z m850 -39 c0 -29 -10 -38 -27 -24 -17 15 -17 29 2 29 18
0 19 11 3 30 -11 12 -10 12 5 1 9 -7 17 -23 17 -36z m110 36 c0 -21 -13 -41
-27 -41 -10 0 -13 6 -9 16 3 9 6 20 6 25 0 5 7 9 15 9 8 0 15 -4 15 -9z m1240
-1 c0 -5 -7 -10 -15 -10 -8 0 -15 5 -15 10 0 6 7 10 15 10 8 0 15 -4 15 -10z
m-2400 -10 c0 -5 -7 -10 -16 -10 -8 0 -12 5 -9 10 3 6 10 10 16 10 5 0 9 -4 9
-10z m-1090 -10 c0 -5 -5 -10 -11 -10 -5 0 -7 5 -4 10 3 6 8 10 11 10 2 0 4
-4 4 -10z m1260 0 c0 -5 -2 -10 -4 -10 -3 0 -8 5 -11 10 -3 6 -1 10 4 10 6 0
11 -4 11 -10z m-1500 -10 c0 -5 -4 -10 -10 -10 -5 0 -10 5 -10 10 0 6 5 10 10
10 6 0 10 -4 10 -10z m45 -1 c11 -17 -1 -21 -15 -4 -8 9 -8 15 -2 15 6 0 14
-5 17 -11z m1365 1 c0 -5 -4 -10 -10 -10 -5 0 -10 5 -10 10 0 6 5 10 10 10 6
0 10 -4 10 -10z m60 0 c0 -5 -4 -10 -10 -10 -5 0 -10 5 -10 10 0 6 5 10 10 10
6 0 10 -4 10 -10z m120 -5 c0 -8 -4 -15 -10 -15 -5 0 -10 7 -10 15 0 8 5 15
10 15 6 0 10 -7 10 -15z m830 5 c0 -5 -4 -10 -10 -10 -5 0 -10 5 -10 10 0 6 5
10 10 10 6 0 10 -4 10 -10z m250 0 c0 -5 -10 -10 -22 -10 -19 0 -20 2 -8 10
19 13 30 13 30 0z m260 -12 c0 -18 -2 -20 -9 -8 -6 8 -7 18 -5 22 9 14 14 9
14 -14z m255 12 c3 -5 1 -10 -4 -10 -6 0 -11 5 -11 10 0 6 2 10 4 10 3 0 8 -4
11 -10z m1105 0 c0 -5 -4 -10 -10 -10 -5 0 -10 5 -10 10 0 6 5 10 10 10 6 0
10 -4 10 -10z m-3230 -10 c0 -5 -4 -10 -10 -10 -5 0 -10 5 -10 10 0 6 5 10 10
10 6 0 10 -4 10 -10z m580 0 c0 -5 -5 -10 -11 -10 -5 0 -7 5 -4 10 3 6 8 10
11 10 2 0 4 -4 4 -10z m4860 6 c0 -3 -4 -8 -10 -11 -5 -3 -10 -1 -10 4 0 6 5
11 10 11 6 0 10 -2 10 -4z m-6605 -16 c3 -5 -1 -10 -9 -10 -9 0 -16 5 -16 10
0 6 4 10 9 10 6 0 13 -4 16 -10z m1827 -15 c0 -5 -5 -11 -11 -13 -6 -2 -11 4
-11 13 0 9 5 15 11 13 6 -2 11 -8 11 -13z m713 5 c3 -6 -1 -13 -10 -16 -19 -8
-30 0 -20 15 8 14 22 14 30 1z m385 -20 c-18 -11 -24 -6 -16 16 5 14 9 15 19
5 9 -9 9 -14 -3 -21z m190 20 c0 -5 -5 -10 -11 -10 -5 0 -7 5 -4 10 3 6 8 10
11 10 2 0 4 -4 4 -10z m-2790 -10 c0 -5 -4 -10 -10 -10 -5 0 -10 5 -10 10 0 6
5 10 10 10 6 0 10 -4 10 -10z m4441 -13 c-13 -13 -26 -3 -16 12 3 6 11 8 17 5
6 -4 6 -10 -1 -17z m-4911 9 c0 -3 -4 -8 -10 -11 -5 -3 -10 -1 -10 4 0 6 5 11
10 11 6 0 10 -2 10 -4z m308 -12 c-9 -9 -21 -13 -28 -9 -14 9 5 25 30 25 12 0
12 -3 -2 -16z m222 6 c0 -5 -7 -10 -15 -10 -8 0 -15 5 -15 10 0 6 7 10 15 10
8 0 15 -4 15 -10z m1100 2 c0 -13 -12 -22 -22 -16 -10 6 -1 24 13 24 5 0 9 -4
9 -8z m-1230 -9 c0 -5 -8 -17 -17 -28 -14 -18 -15 -18 -9 -2 3 10 6 23 6 28 0
5 5 9 10 9 6 0 10 -3 10 -7z m680 -3 c0 -5 -4 -10 -10 -10 -5 0 -10 5 -10 10
0 6 5 10 10 10 6 0 10 -4 10 -10z m1117 -12 c-3 -8 -6 -5 -6 6 -1 11 2 17 5
13 3 -3 4 -12 1 -19z m344 -1 c-13 -13 -26 -3 -16 12 3 6 11 8 17 5 6 -4 6
-10 -1 -17z m309 13 c0 -5 -7 -10 -15 -10 -8 0 -15 5 -15 10 0 6 7 10 15 10 8
0 15 -4 15 -10z m-2286 -16 c4 -10 1 -14 -6 -12 -15 5 -23 28 -10 28 5 0 13
-7 16 -16z m1804 -2 c6 -18 -15 -14 -22 4 -4 10 -1 14 6 12 6 -2 14 -10 16
-16z m62 8 c0 -5 -5 -10 -11 -10 -5 0 -7 5 -4 10 3 6 8 10 11 10 2 0 4 -4 4
-10z m2000 0 c0 -5 -5 -10 -11 -10 -5 0 -7 5 -4 10 3 6 8 10 11 10 2 0 4 -4 4
-10z m-3195 -10 c3 -5 -1 -10 -9 -10 -9 0 -16 5 -16 10 0 6 4 10 9 10 6 0 13
-4 16 -10z m1043 4 c25 -7 30 -24 7 -24 -8 0 -15 4 -15 9 0 5 -10 12 -22 14
-13 2 -16 5 -8 6 8 0 25 -2 38 -5z m393 -8 c-1 -12 -51 -17 -51 -6 0 9 28 19
43 16 5 -1 8 -5 8 -10z m-2461 -6 c0 -5 -5 -10 -11 -10 -5 0 -7 5 -4 10 3 6 8
10 11 10 2 0 4 -4 4 -10z m730 0 c0 -5 -4 -10 -10 -10 -5 0 -10 5 -10 10 0 6
5 10 10 10 6 0 10 -4 10 -10z m2815 0 c3 -5 -1 -10 -10 -10 -9 0 -13 5 -10 10
3 6 8 10 10 10 2 0 7 -4 10 -10z m-2320 -10 c3 -5 1 -10 -4 -10 -6 0 -11 5
-11 10 0 6 2 10 4 10 3 0 8 -4 11 -10z m1912 -10 c8 -12 9 -21 3 -25 -6 -3
-10 1 -10 9 0 9 -7 16 -15 16 -8 0 -15 5 -15 10 0 17 25 11 37 -10z m-3662 0
c3 -5 -1 -10 -10 -10 -9 0 -13 5 -10 10 3 6 8 10 10 10 2 0 7 -4 10 -10z
m1055 0 c0 -5 -7 -10 -16 -10 -8 0 -12 5 -9 10 3 6 10 10 16 10 5 0 9 -4 9
-10z m1655 0 c3 -5 2 -10 -4 -10 -5 0 -13 5 -16 10 -3 6 -2 10 4 10 5 0 13 -4
16 -10z m-1361 -133 c58 -71 106 -133 106 -139 0 -5 9 -6 21 -3 14 5 19 3 17
-7 -4 -17 45 -95 50 -80 7 21 25 13 19 -9 -6 -22 20 -57 170 -232 47 -53 88
-95 93 -92 4 3 7 -1 6 -9 -1 -18 517 -642 751 -902 40 -45 73 -86 73 -92 0 -5
8 -13 18 -17 23 -9 283 -7 572 5 129 5 303 12 385 15 83 3 497 10 920 15 843
11 960 17 1021 48 40 21 97 73 149 136 32 39 45 45 45 21 0 -9 9 -33 20 -54
10 -21 21 -50 24 -65 8 -43 17 -66 26 -66 5 0 7 6 4 14 -10 27 93 25 161 -3
21 -9 75 -24 140 -40 l40 -9 -47 -1 c-27 -1 -48 -5 -48 -11 0 -12 309 -12 440
-1 l85 8 -80 2 c-55 1 -75 5 -64 11 21 12 1344 5 1619 -9 372 -19 750 -25 750
-12 0 6 8 11 18 12 10 0 12 3 5 6 -19 7 -16 21 3 19 9 0 19 6 21 14 4 13 3 13
-7 0 -10 -13 -11 -13 -7 0 2 8 10 15 18 15 8 1 13 7 11 14 -1 7 2 10 7 7 5 -4
12 -2 16 4 3 5 11 10 16 10 6 0 -3 -17 -20 -37 -17 -20 -28 -39 -25 -42 5 -5
20 11 65 71 16 22 17 26 5 22 -12 -5 -15 -2 -10 10 4 10 12 15 19 12 7 -2 21
5 32 17 l18 22 -22 -19 c-13 -11 -23 -15 -23 -9 0 14 35 44 43 37 3 -3 4 2 1
13 -3 10 6 31 21 48 152 175 198 225 206 225 5 0 8 4 7 8 -5 15 67 102 80 97
7 -3 10 0 7 6 -8 13 14 41 26 33 5 -3 8 -1 7 5 -4 13 73 110 88 111 6 0 19 10
30 23 10 12 69 80 129 151 61 72 151 177 200 234 136 158 245 293 245 303 0
10 12 24 133 161 44 48 83 88 89 88 25 0 -7 -58 -212 -390 -73 -118 -216 -350
-318 -515 -263 -426 -418 -668 -442 -690 -31 -28 -24 -11 19 46 21 28 63 95
92 148 29 53 87 150 129 216 42 66 91 147 110 180 18 33 55 92 80 130 26 39
100 156 165 260 64 105 171 272 238 373 66 100 118 185 115 187 -5 6 -19 -13
-483 -665 -186 -261 -386 -545 -444 -630 -57 -85 -132 -191 -166 -235 -34 -44
-70 -93 -81 -109 l-18 -29 61 5 c51 5 65 11 90 37 38 39 51 40 24 3 -14 -21
-17 -32 -9 -40 14 -14 -57 -24 -183 -26 -54 0 -95 -4 -91 -7 16 -15 158 -30
443 -49 167 -11 305 -17 308 -15 2 3 -4 5 -15 5 -31 1 -305 29 -340 36 -18 3
-39 13 -46 22 -11 14 -10 15 7 7 11 -5 48 -10 82 -10 33 0 59 -3 56 -7 -4 -8
19 -10 147 -14 36 -1 93 -4 126 -7 34 -3 65 -3 69 1 4 4 48 6 98 4 74 -3 98
-8 125 -25 45 -30 50 -54 19 -85 l-26 -25 -35 26 c-35 27 -35 27 -93 12 -132
-34 -163 -68 -91 -100 21 -9 38 -21 38 -26 0 -13 -14 -11 -29 4 -11 10 -12 8
-6 -12 6 -21 5 -23 -11 -16 -52 21 -78 24 -86 12 -6 -9 -10 -9 -18 3 -8 13
-11 13 -22 1 -9 -9 -10 -15 -2 -18 6 -2 20 -10 30 -18 15 -11 17 -16 7 -26
-18 -18 -16 -30 2 -23 18 7 20 -7 3 -24 -6 -6 -13 -18 -14 -26 -1 -8 -9 -46
-18 -86 -9 -40 -15 -74 -13 -76 4 -5 47 134 47 152 0 5 9 20 20 32 17 18 19
26 10 43 -11 20 -10 20 30 -3 47 -26 77 -65 41 -53 -18 5 -24 0 -35 -27 -8
-18 -17 -50 -21 -71 -4 -20 -26 -74 -49 -120 -46 -89 -91 -205 -84 -212 3 -3
24 32 48 78 55 106 80 130 44 43 -6 -15 -4 -17 6 -11 9 6 12 4 8 -6 -11 -30
-77 -329 -93 -424 -26 -153 -53 -244 -93 -308 l-37 -59 -61 5 c-48 4 -65 1
-83 -14 -40 -33 -44 -21 -8 24 46 57 54 73 61 137 l7 55 -30 -60 c-33 -65 -59
-96 -116 -135 -34 -23 -85 -64 -59 -47 18 12 40 -21 27 -41 -29 -47 -150 -82
-493 -142 -96 -17 -193 -35 -215 -40 -52 -12 -145 -33 -270 -61 -55 -12 -122
-27 -150 -35 -27 -7 -111 -25 -185 -39 -74 -15 -182 -37 -240 -50 -58 -13
-148 -31 -200 -40 -52 -8 -169 -30 -260 -49 -101 -21 -169 -31 -174 -25 -6 5
-17 9 -25 8 -11 0 -10 -3 4 -8 16 -7 14 -9 -16 -15 -20 -3 -44 -4 -53 0 -9 3
-16 1 -16 -5 0 -6 -8 -11 -17 -12 -16 0 -15 -2 2 -10 15 -6 8 -8 -27 -5 -26 1
-45 0 -43 -4 2 -3 -58 -18 -133 -33 -493 -94 -667 -129 -726 -148 -37 -11 -73
-18 -79 -16 -7 2 23 15 65 28 43 13 78 28 78 32 0 8 -33 5 -60 -6 -33 -12 -86
-21 -152 -26 -10 0 -18 -5 -18 -11 0 -5 8 -10 18 -10 13 -1 11 -4 -8 -15 -14
-8 -28 -14 -32 -15 -16 0 -7 49 9 59 10 5 15 13 11 17 -4 4 -18 -1 -32 -9 -22
-15 -23 -20 -14 -50 9 -28 7 -41 -11 -78 l-22 -44 21 25 c19 22 20 22 11 3 -6
-12 -11 -36 -11 -53 0 -18 -6 -33 -15 -36 -12 -5 -13 -10 -4 -20 7 -9 7 -18 0
-31 -8 -14 -11 -15 -12 -3 -1 8 -3 20 -4 25 -2 6 -3 29 -4 52 -1 34 -8 51 -38
84 -20 22 -48 46 -62 54 -50 25 -155 55 -196 55 -37 0 -169 25 -410 79 -97 22
-835 168 -1002 198 -61 11 -109 16 -118 10 -9 -5 -15 -4 -15 3 0 5 -7 10 -15
10 -28 0 -15 -15 35 -39 32 -16 46 -28 38 -32 -13 -8 31 -79 92 -149 29 -33
88 -110 259 -335 42 -55 90 -116 108 -135 18 -19 33 -40 33 -47 0 -6 8 -18 18
-25 10 -7 54 -53 98 -102 43 -49 104 -114 134 -145 31 -31 69 -72 86 -91 31
-35 72 -65 80 -57 3 2 -2 10 -11 17 -8 7 -15 18 -15 24 0 6 -9 18 -19 25 -21
16 -17 43 5 34 8 -3 14 0 14 6 0 6 -3 11 -8 11 -4 0 -13 10 -20 23 -7 12 3 4
23 -18 102 -113 106 -122 104 -214 -1 -68 -4 -79 -18 -74 -9 3 -5 -4 9 -16 15
-12 20 -21 11 -21 -9 0 -6 -8 10 -24 13 -13 44 -44 68 -70 25 -25 48 -46 52
-46 4 0 15 -8 24 -17 14 -13 21 -14 36 -5 23 15 32 15 23 1 -4 -7 1 -7 16 1
18 10 24 9 31 -1 12 -19 11 -29 -1 -29 -18 0 -98 -80 -130 -131 -18 -27 -34
-49 -36 -49 -3 0 -93 126 -174 243 -8 12 -53 76 -100 142 -46 66 -111 160
-143 209 -58 88 -212 308 -485 696 -192 270 -223 312 -229 307 -2 -3 76 -121
174 -261 195 -280 362 -524 590 -859 81 -120 192 -281 247 -359 97 -139 98
-142 88 -177 -11 -35 -11 -36 6 -13 138 188 142 191 772 406 299 102 400 141
416 159 19 22 25 23 80 17 33 -4 70 -10 81 -14 15 -5 28 -1 42 13 l21 21 0
-30 c0 -61 -62 -146 -125 -170 -38 -15 -460 -161 -683 -236 -199 -67 -272
-100 -330 -149 -69 -60 -86 -102 -89 -230 -2 -60 -5 -116 -8 -122 -3 -9 9 -13
43 -12 43 1 45 1 20 11 -16 5 -28 15 -27 21 0 7 44 46 99 87 74 57 100 82 105
105 l7 30 7 -25 7 -25 394 0 395 0 67 -37 c77 -44 88 -46 88 -17 0 18 2 19 15
9 20 -17 19 -36 -5 -75 -37 -60 -27 -59 -587 -65 -281 -3 -514 -8 -517 -11 -9
-9 233 -24 339 -21 50 1 231 5 404 9 l313 8 44 48 c24 27 44 59 44 71 0 12 5
27 12 34 9 9 6 12 -15 12 -30 0 -45 8 -154 86 -54 38 -69 54 -60 63 11 11 360
17 389 6 10 -4 13 -31 12 -109 -3 -168 -17 -224 -71 -265 -20 -17 -28 -19 -35
-9 -4 7 -8 8 -8 2 0 -6 -15 -18 -34 -26 -33 -16 -34 -16 -60 11 -14 15 -24 30
-21 33 3 3 -1 8 -10 11 -22 9 -19 -5 10 -48 35 -50 22 -59 -21 -13 -31 35 -54
40 -33 8 11 -19 11 -30 0 -30 -5 0 -14 13 -21 30 -17 40 -52 62 -82 51 l-23
-10 23 0 c23 -1 30 -17 10 -23 -8 -3 -5 -12 10 -28 12 -13 22 -19 22 -14 0 6
-5 15 -12 22 -6 6 -9 15 -5 19 8 8 36 -26 37 -44 0 -8 -13 -13 -32 -13 -49 0
-78 11 -78 27 0 13 -9 14 -47 9 -64 -10 -120 -8 -163 6 -19 6 -98 14 -175 18
-132 7 -128 8 65 5 113 -1 185 1 160 5 -25 4 -103 8 -175 10 -71 1 -249 5
-395 9 -194 4 -270 3 -287 -6 -26 -13 -113 -85 -113 -93 0 -3 71 -6 158 -6
172 -2 222 -4 222 -10 0 -2 -5 -13 -12 -23 -9 -15 -6 -26 18 -60 112 -160 148
-210 227 -318 48 -68 92 -123 97 -123 13 0 -18 58 -70 130 -84 118 -137 194
-185 270 l-47 75 48 -45 c27 -25 51 -48 54 -51 3 -4 47 -28 99 -54 l93 -48 17
21 c9 12 48 37 86 55 78 38 165 92 210 130 37 33 30 36 -100 40 -99 3 -98 3
25 5 69 1 132 -3 140 -8 8 -5 12 -10 8 -10 -5 0 -10 1 -12 3 -10 6 -52 -45
-112 -135 -35 -55 -93 -138 -127 -186 -34 -48 -75 -107 -90 -132 l-28 -45 51
55 51 55 -50 -71 c-51 -71 -63 -108 -38 -117 17 -6 69 32 60 45 -4 8 0 9 11 5
12 -5 16 -2 14 11 -2 10 6 21 19 27 13 5 22 14 20 20 -1 5 9 26 23 45 60 83
78 115 73 124 -3 5 -1 6 5 2 7 -4 12 -3 12 3 0 11 49 62 126 130 l49 44 75
-13 c41 -6 85 -18 98 -26 20 -13 24 -13 47 10 14 14 25 23 25 20 0 -7 -59
-110 -111 -194 -212 -344 -475 -771 -518 -843 -43 -72 -56 -86 -66 -75 -14 16
-133 209 -270 438 -98 164 -431 701 -466 752 -33 46 -27 50 59 43 112 -9 126
-13 137 -38 24 -53 96 -52 147 3 l27 31 -24 9 c-13 5 -103 10 -199 11 -97 1
-176 5 -176 9 0 4 15 18 34 31 98 70 136 102 142 122 7 21 6 118 -1 125 -2 2
-16 -3 -33 -12 -16 -8 -40 -17 -53 -20 -78 -14 -79 -15 -79 -65 0 -33 -3 -42
-10 -31 -5 8 -10 74 -11 145 -1 99 -3 122 -10 95 -5 -19 -7 -108 -3 -198 3
-89 2 -162 -2 -161 -5 0 -43 55 -85 122 -42 67 -159 253 -259 412 -101 160
-216 345 -257 413 -41 68 -179 291 -307 495 -128 205 -285 455 -349 557 -63
102 -125 197 -136 211 -34 43 -35 56 -7 61 14 3 26 2 26 -3 0 -4 19 -10 41
-14 29 -5 38 -10 28 -16 -9 -6 4 -9 36 -8 l50 0 -37 16 c-62 25 -46 36 45 30
l82 -6 -60 19 c-144 44 -259 73 -380 96 -71 14 -164 32 -205 39 -41 8 -115 23
-165 34 -84 18 -254 52 -505 102 -58 11 -124 27 -148 35 -24 8 -47 12 -51 10
-4 -3 -23 10 -43 27 -19 18 -44 37 -54 44 -16 10 -15 11 14 6 34 -6 44 11 20
35 -7 7 -8 12 -2 12 6 0 15 -5 22 -12 6 -6 14 -9 17 -6 3 3 -12 17 -34 31 -48
32 -103 99 -123 152 -9 22 -48 171 -88 330 -39 159 -78 301 -86 315 l-14 25 6
-30 c3 -16 26 -110 50 -207 58 -231 84 -360 84 -414 0 -56 40 -147 80 -181 39
-33 31 -42 -10 -13 -28 20 -37 21 -67 12 -43 -13 -57 -8 -72 24 -17 38 -14 64
8 64 11 0 23 5 26 10 4 6 -8 10 -29 10 -22 0 -43 7 -55 19 -17 17 -61 136 -74
201 -3 14 -19 86 -36 160 -17 74 -35 160 -41 190 -6 30 -20 96 -30 145 -36
170 -48 246 -43 266 4 15 0 22 -16 26 -11 3 -21 9 -21 12 0 13 75 69 113 85
39 16 42 22 28 45 -7 11 -10 9 -16 -8 -4 -14 -15 -21 -31 -21 -14 0 -39 -7
-57 -17 -36 -18 -97 -34 -94 -24 0 3 -5 17 -13 31 -15 26 -21 130 -9 130 4 0
42 -19 84 -41 86 -47 115 -47 33 0 -62 36 -59 39 8 11 74 -32 62 -16 -18 23
-129 63 -187 68 -240 20 -23 -21 -37 -9 -44 39 -5 30 -2 38 22 55 39 28 75 33
314 42 136 6 206 5 209 -1 2 -7 6 -7 10 0 7 11 211 22 211 11 0 -13 -64 -28
-180 -41 -63 -7 -105 -14 -92 -16 26 -4 343 22 462 38 122 17 140 20 140 29 0
5 -18 5 -41 1 -22 -4 -57 -4 -77 1 -20 5 -55 9 -77 9 -22 0 -46 4 -53 9 -7 4
24 6 69 3 68 -4 80 -2 74 9 -17 29 -156 231 -228 330 -145 203 -695 976 -795
1119 -56 80 -122 171 -147 203 -42 54 -56 83 -36 75 5 -1 56 -61 115 -131z
m1121 123 c3 -5 -1 -10 -9 -10 -9 0 -16 5 -16 10 0 6 4 10 9 10 6 0 13 -4 16
-10z m102 -9 c12 -19 8 -31 -10 -31 -5 0 -7 7 -3 15 3 8 1 15 -4 15 -6 0 -10
5 -10 10 0 16 14 11 27 -9z m233 -2 c0 -6 -4 -7 -10 -4 -5 3 -10 11 -10 16 0
6 5 7 10 4 6 -3 10 -11 10 -16z m1985 11 c3 -5 -1 -10 -10 -10 -9 0 -13 5 -10
10 3 6 8 10 10 10 2 0 7 -4 10 -10z m-2398 -26 c-9 -9 -28 6 -21 18 4 6 10 6
17 -1 6 -6 8 -13 4 -17z m128 16 c3 -5 1 -10 -4 -10 -6 0 -11 5 -11 10 0 6 2
10 4 10 3 0 8 -4 11 -10z m-239 -27 c-7 -7 -26 7 -26 19 0 6 6 6 15 -2 9 -7
13 -15 11 -17z m964 17 c0 -5 -4 -10 -10 -10 -5 0 -10 5 -10 10 0 6 5 10 10
10 6 0 10 -4 10 -10z m930 0 c0 -5 -4 -10 -10 -10 -5 0 -10 5 -10 10 0 6 5 10
10 10 6 0 10 -4 10 -10z m-3406 -39 c-9 -10 -26 18 -18 30 5 9 9 8 14 -7 4
-10 6 -21 4 -23z m646 35 c0 -3 -4 -8 -10 -11 -5 -3 -10 -1 -10 4 0 6 5 11 10
11 6 0 10 -2 10 -4z m1330 -12 c0 -8 -4 -12 -10 -9 -5 3 -10 10 -10 16 0 5 5
9 10 9 6 0 10 -7 10 -16z m-1265 -4 c3 -5 1 -10 -4 -10 -6 0 -11 5 -11 10 0 6
2 10 4 10 3 0 8 -4 11 -10z m2322 -16 c-9 -9 -28 6 -21 18 4 6 10 6 17 -1 6
-6 8 -13 4 -17z m248 16 c3 -5 1 -10 -4 -10 -6 0 -11 5 -11 10 0 6 2 10 4 10
3 0 8 -4 11 -10z m-987 -28 c2 -7 -3 -12 -12 -12 -9 0 -16 7 -16 16 0 17 22
14 28 -4z m-1538 -2 c0 -5 -4 -10 -10 -10 -5 0 -10 5 -10 10 0 6 5 10 10 10 6
0 10 -4 10 -10z m440 2 c0 -13 -12 -22 -22 -16 -10 6 -1 24 13 24 5 0 9 -4 9
-8z m1287 2 c-3 -3 -12 -4 -19 -1 -8 3 -5 6 6 6 11 1 17 -2 13 -5z m3253 -4
c0 -5 -4 -10 -10 -10 -5 0 -10 5 -10 10 0 6 5 10 10 10 6 0 10 -4 10 -10z
m-5630 -10 c0 -5 -4 -10 -10 -10 -5 0 -10 5 -10 10 0 6 5 10 10 10 6 0 10 -4
10 -10z m1420 0 c0 -5 -7 -10 -15 -10 -8 0 -15 5 -15 10 0 6 7 10 15 10 8 0
15 -4 15 -10z m145 0 c3 -5 1 -10 -4 -10 -6 0 -11 5 -11 10 0 6 2 10 4 10 3 0
8 -4 11 -10z m1205 0 c0 -5 -5 -10 -11 -10 -5 0 -7 5 -4 10 3 6 8 10 11 10 2
0 4 -4 4 -10z m380 -10 c0 -5 -5 -10 -11 -10 -5 0 -7 5 -4 10 3 6 8 10 11 10
2 0 4 -4 4 -10z m-770 -10 c0 -5 -5 -10 -11 -10 -5 0 -7 5 -4 10 3 6 8 10 11
10 2 0 4 -4 4 -10z m-2410 -10 c0 -5 -7 -10 -15 -10 -8 0 -15 5 -15 10 0 6 7
10 15 10 8 0 15 -4 15 -10z m69 -16 c-6 -8 -18 -14 -27 -14 -13 0 -12 3 4 19
21 21 41 17 23 -5z m2741 6 c0 -5 -5 -10 -11 -10 -5 0 -7 5 -4 10 3 6 8 10 11
10 2 0 4 -4 4 -10z m1130 0 c0 -5 -5 -10 -11 -10 -5 0 -7 5 -4 10 3 6 8 10 11
10 2 0 4 -4 4 -10z m-2845 -10 c3 -5 1 -10 -4 -10 -6 0 -11 5 -11 10 0 6 2 10
4 10 3 0 8 -4 11 -10z m805 0 c0 -5 -4 -10 -10 -10 -5 0 -10 5 -10 10 0 6 5
10 10 10 6 0 10 -4 10 -10z m40 0 c0 -5 -4 -10 -10 -10 -5 0 -10 5 -10 10 0 6
5 10 10 10 6 0 10 -4 10 -10z m-1351 -215 c143 -225 594 -960 615 -1005 16
-34 16 -34 -1 -11 -41 55 -268 419 -533 856 -57 94 -122 199 -145 235 -23 36
-52 83 -64 105 -50 87 19 -10 128 -180z m-459 190 c0 -8 -4 -15 -10 -15 -5 0
-10 7 -10 15 0 8 5 15 10 15 6 0 10 -7 10 -15z m1310 11 c0 -3 -4 -8 -10 -11
-5 -3 -10 -1 -10 4 0 6 5 11 10 11 6 0 10 -2 10 -4z m2315 -16 c-3 -5 -10 -10
-16 -10 -5 0 -9 5 -9 10 0 6 7 10 16 10 8 0 12 -4 9 -10z m-2355 -20 c0 -5 -4
-10 -10 -10 -5 0 -10 5 -10 10 0 6 5 10 10 10 6 0 10 -4 10 -10z m1250 0 c0
-5 -2 -10 -4 -10 -3 0 -8 5 -11 10 -3 6 -1 10 4 10 6 0 11 -4 11 -10z m940 0
c0 -5 -2 -10 -4 -10 -3 0 -8 5 -11 10 -3 6 -1 10 4 10 6 0 11 -4 11 -10z
m-3366 -21 c-3 -5 -10 -7 -15 -3 -5 3 -7 10 -3 15 3 5 10 7 15 3 5 -3 7 -10 3
-15z m46 2 c0 -5 -7 -11 -15 -15 -15 -5 -20 5 -8 17 9 10 23 9 23 -2z m1600
-1 c0 -5 -4 -10 -10 -10 -5 0 -10 5 -10 10 0 6 5 10 10 10 6 0 10 -4 10 -10z
m890 0 c0 -5 -4 -10 -10 -10 -5 0 -10 5 -10 10 0 6 5 10 10 10 6 0 10 -4 10
-10z m1010 6 c0 -3 -4 -8 -10 -11 -5 -3 -10 -1 -10 4 0 6 5 11 10 11 6 0 10
-2 10 -4z m-1210 -16 c0 -5 -5 -10 -11 -10 -5 0 -7 5 -4 10 3 6 8 10 11 10 2
0 4 -4 4 -10z m-835 -10 c-3 -5 -10 -10 -16 -10 -5 0 -9 5 -9 10 0 6 7 10 16
10 8 0 12 -4 9 -10z m445 0 c0 -5 -4 -10 -10 -10 -5 0 -10 5 -10 10 0 6 5 10
10 10 6 0 10 -4 10 -10z m-1415 -20 c3 -5 -1 -10 -10 -10 -9 0 -13 5 -10 10 3
6 8 10 10 10 2 0 7 -4 10 -10z m65 -10 c0 -5 -4 -10 -10 -10 -5 0 -10 5 -10
10 0 6 5 10 10 10 6 0 10 -4 10 -10z m1650 -10 c0 -5 -2 -10 -4 -10 -3 0 -8 5
-11 10 -3 6 -1 10 4 10 6 0 11 -4 11 -10z m707 4 c-3 -3 -12 -4 -19 -1 -8 3
-5 6 6 6 11 1 17 -2 13 -5z m-2807 -14 c0 -5 -4 -10 -9 -10 -6 0 -13 5 -16 10
-3 6 1 10 9 10 9 0 16 -4 16 -10z m880 0 c0 -5 -5 -10 -11 -10 -5 0 -7 5 -4
10 3 6 8 10 11 10 2 0 4 -4 4 -10z m395 -20 c3 -5 1 -10 -4 -10 -6 0 -11 5
-11 10 0 6 2 10 4 10 3 0 8 -4 11 -10z m-1365 -40 c0 -5 -5 -10 -11 -10 -5 0
-7 5 -4 10 3 6 8 10 11 10 2 0 4 -4 4 -10z m1450 0 c0 -5 -4 -10 -10 -10 -5 0
-10 5 -10 10 0 6 5 10 10 10 6 0 10 -4 10 -10z m775 -20 c3 -5 2 -10 -4 -10
-5 0 -13 5 -16 10 -3 6 -2 10 4 10 5 0 13 -4 16 -10z m-2681 -25 c-4 -8 -11
-12 -16 -9 -6 4 -5 10 3 15 19 12 19 11 13 -6z m131 5 c3 -5 1 -10 -4 -10 -6
0 -11 5 -11 10 0 6 2 10 4 10 3 0 8 -4 11 -10z m495 0 c0 -5 -4 -10 -10 -10
-5 0 -10 5 -10 10 0 6 5 10 10 10 6 0 10 -4 10 -10z m3040 -20 c0 -5 -5 -10
-11 -10 -5 0 -7 5 -4 10 3 6 8 10 11 10 2 0 4 -4 4 -10z m-3240 -21 c0 -6 -4
-7 -10 -4 -5 3 -10 11 -10 16 0 6 5 7 10 4 6 -3 10 -11 10 -16z m270 2 c0 -12
-20 -25 -27 -18 -7 7 6 27 18 27 5 0 9 -4 9 -9z m-641 -22 c-16 -10 -23 -4
-14 10 3 6 11 8 17 5 6 -4 5 -9 -3 -15z m3301 17 c0 -3 -4 -8 -10 -11 -5 -3
-10 -1 -10 4 0 6 5 11 10 11 6 0 10 -2 10 -4z m-1560 -16 c0 -5 -4 -10 -10
-10 -5 0 -10 5 -10 10 0 6 5 10 10 10 6 0 10 -4 10 -10z m878 -36 c48 -9 131
-35 200 -64 204 -87 355 -222 393 -352 11 -39 -7 -45 -26 -8 -18 35 -28 40
-16 7 13 -33 5 -165 -10 -184 -21 -24 -120 -85 -172 -105 -26 -10 -70 -18
-100 -17 -40 1 -46 3 -27 9 17 5 -7 9 -72 11 -53 2 -94 1 -91 -3 2 -5 -5 -8
-16 -8 -22 0 -30 20 -8 20 6 0 4 5 -5 11 -10 5 -18 17 -18 25 0 12 10 14 53 9
28 -4 57 -8 63 -10 5 -1 47 1 93 5 100 11 197 52 230 99 12 17 27 30 33 28 12
-2 25 38 27 86 1 23 -3 27 -16 23 -14 -4 -23 7 -40 42 -21 44 -82 117 -129
153 -39 30 -234 122 -321 150 -74 24 -81 28 -43 24 l45 -4 -55 15 c-73 20
-241 23 -304 5 l-48 -14 23 -18 24 -19 -36 0 c-28 0 -38 5 -42 19 -10 38 18
58 95 71 40 6 80 13 88 15 24 6 139 -5 228 -21z m-1578 -4 c0 -5 -5 -10 -11
-10 -5 0 -7 5 -4 10 3 6 8 10 11 10 2 0 4 -4 4 -10z m2402 -42 c8 -7 27 -20
43 -28 34 -18 42 -35 19 -44 -10 -4 -25 1 -38 13 -12 11 -33 22 -48 26 -23 6
-34 -2 -92 -62 -36 -37 -66 -71 -66 -76 0 -4 -12 -12 -27 -18 -35 -13 -46 -1
-46 56 0 52 30 92 93 125 41 22 141 27 162 8z m-1532 -18 c0 -5 -4 -10 -10
-10 -5 0 -10 5 -10 10 0 6 5 10 10 10 6 0 10 -4 10 -10z m-60 -20 c0 -5 -5
-10 -11 -10 -5 0 -7 5 -4 10 3 6 8 10 11 10 2 0 4 -4 4 -10z m155 -10 c3 -5 2
-10 -4 -10 -5 0 -13 5 -16 10 -3 6 -2 10 4 10 5 0 13 -4 16 -10z m1130 -10 c3
-5 1 -10 -4 -10 -6 0 -11 5 -11 10 0 6 2 10 4 10 3 0 8 -4 11 -10z m265 6 c0
-3 -4 -8 -10 -11 -5 -3 -10 -1 -10 4 0 6 5 11 10 11 6 0 10 -2 10 -4z m-4250
-16 c0 -5 -2 -10 -4 -10 -3 0 -8 5 -11 10 -3 6 -1 10 4 10 6 0 11 -4 11 -10z
m2820 0 c0 -5 -4 -10 -10 -10 -5 0 -10 5 -10 10 0 6 5 10 10 10 6 0 10 -4 10
-10z m-2590 -4 c0 -3 -4 -8 -10 -11 -5 -3 -10 -1 -10 4 0 6 5 11 10 11 6 0 10
-2 10 -4z m680 -6 c0 -5 -2 -10 -4 -10 -3 0 -8 5 -11 10 -3 6 -1 10 4 10 6 0
11 -4 11 -10z m425 0 c3 -5 1 -10 -4 -10 -6 0 -11 5 -11 10 0 6 2 10 4 10 3 0
8 -4 11 -10z m590 0 c-3 -5 -10 -10 -16 -10 -5 0 -9 5 -9 10 0 6 7 10 16 10 8
0 12 -4 9 -10z m-1145 -14 c0 -3 -4 -8 -10 -11 -5 -3 -10 -1 -10 4 0 6 5 11
10 11 6 0 10 -2 10 -4z m1190 -6 c0 -5 -4 -10 -9 -10 -6 0 -13 5 -16 10 -3 6
1 10 9 10 9 0 16 -4 16 -10z m2380 -4 c0 -17 -58 -69 -100 -91 -17 -9 -30 -20
-30 -24 0 -14 -72 -22 -107 -12 -26 7 -31 7 -26 -5 3 -9 -1 -14 -12 -14 -11 0
-15 7 -13 23 2 17 9 22 31 20 15 -1 25 2 22 7 -9 14 13 22 70 24 41 2 65 10
96 32 23 15 43 34 46 41 7 17 23 17 23 -1z m-3693 -12 c-3 -3 -12 -4 -19 -1
-8 3 -5 6 6 6 11 1 17 -2 13 -5z m1353 -23 c0 -12 -20 -25 -27 -18 -7 7 6 27
18 27 5 0 9 -4 9 -9z m-770 -11 c0 -5 -4 -10 -10 -10 -5 0 -10 5 -10 10 0 6 5
10 10 10 6 0 10 -4 10 -10z m2264 -12 c20 -28 20 -38 1 -38 -12 0 -15 -13 -15
-61 0 -48 3 -59 13 -52 22 17 190 1 259 -26 28 -10 68 -48 68 -64 0 -5 -12 -6
-27 -2 -23 5 -25 4 -14 -9 22 -26 -11 -66 -55 -66 -22 0 -17 15 9 29 18 9 23
19 19 37 -2 14 -11 24 -21 23 -10 0 -11 -2 -3 -6 6 -2 12 -8 12 -12 0 -16 -80
13 -81 29 0 10 -2 11 -6 3 -2 -7 -12 -13 -21 -13 -14 0 -14 2 -3 9 8 5 -15 7
-58 6 -39 -2 -71 1 -71 6 0 5 8 9 18 9 16 1 16 1 -1 11 -13 8 -22 7 -32 -1
-20 -17 -16 -337 5 -350 12 -7 12 -10 -3 -16 -9 -3 -24 -4 -32 0 -20 7 -32 39
-17 44 7 2 12 12 12 23 0 13 -5 17 -17 12 -12 -5 -15 -2 -10 9 4 12 -2 18 -20
23 -56 14 -203 124 -203 152 0 10 14 3 40 -20 46 -39 149 -97 173 -97 13 0 16
17 19 86 3 96 0 103 -61 111 -43 6 -132 -19 -151 -43 -14 -16 -30 -19 -30 -4
0 23 85 69 164 90 l84 22 8 67 c7 62 9 75 12 94 3 14 21 7 36 -15z m2952 -11
c31 -8 54 -21 67 -39 23 -31 18 -45 -11 -29 -19 10 -20 8 -18 -50 2 -55 -1
-62 -24 -78 -20 -14 -112 -51 -127 -51 -2 0 -3 6 -3 14 0 7 13 19 29 26 17 6
42 33 60 61 30 49 30 50 11 69 -11 11 -20 26 -20 33 0 8 -23 18 -57 25 -81 17
-88 8 -88 -111 -1 -169 8 -262 25 -262 39 -2 110 -18 110 -26 0 -11 -243 -12
-254 -2 -4 5 12 13 35 18 l42 11 -2 179 c-1 99 -4 182 -6 184 -2 2 -19 6 -36
10 -44 9 -48 29 -7 33 62 6 227 -3 274 -15z m344 13 c61 0 59 -16 -4 -23 -21
-3 -42 -11 -47 -18 -12 -19 -12 -366 0 -373 5 -4 11 -1 13 5 3 9 9 9 25 0 12
-6 34 -11 49 -11 17 0 24 -4 19 -9 -10 -9 -122 -16 -197 -13 -48 2 -49 18 -2
26 l36 7 -3 180 c-2 111 -7 183 -13 188 -6 5 -23 11 -38 15 -16 3 -28 10 -28
15 0 15 31 20 85 15 28 -2 75 -4 105 -4z m615 -11 c-4 -5 -15 -9 -25 -9 -10 0
-21 -4 -25 -10 -3 -5 -12 -7 -19 -4 -15 6 -40 -21 -32 -34 3 -6 -1 -15 -9 -22
-8 -7 -15 -9 -15 -4 -1 5 -10 -8 -21 -28 -10 -21 -33 -45 -49 -53 -17 -9 -30
-20 -30 -26 0 -7 6 -6 16 2 14 12 20 9 46 -21 48 -58 178 -228 178 -234 0 -3
-10 -6 -22 -6 -32 0 -111 63 -184 146 -34 39 -66 69 -71 65 -9 -5 -101 -131
-116 -156 -3 -7 7 -11 28 -11 33 0 54 -9 44 -18 -5 -6 -87 -10 -141 -8 -42 2
-50 17 -15 27 30 10 58 36 129 123 l60 73 -34 43 c-18 23 -51 65 -73 94 -27
34 -48 51 -62 52 -14 0 -23 6 -23 15 0 12 18 15 105 15 63 0 105 -4 105 -10 0
-5 -13 -10 -28 -10 -16 0 -37 -6 -47 -14 -18 -13 -17 -15 14 -55 48 -61 54
-54 9 11 -22 31 -22 38 -4 38 8 0 31 -23 52 -52 l38 -51 46 50 c25 28 52 53
60 56 8 3 0 6 -17 6 -22 1 -33 6 -33 16 0 11 18 15 78 17 84 3 95 2 87 -13z
m-6702 -8 c3 -14 1 -18 -9 -14 -8 3 -14 11 -14 19 0 21 17 17 23 -5z m7132 9
c-3 -5 -15 -10 -25 -10 -51 0 -60 -19 -36 -73 8 -18 21 -52 30 -77 8 -25 24
-67 34 -95 11 -27 28 -71 38 -97 10 -27 22 -48 26 -48 11 0 10 7 -6 38 -24 46
-117 324 -111 330 10 10 21 -12 60 -118 21 -58 52 -137 70 -176 28 -62 37 -72
64 -77 34 -7 41 -22 14 -28 -35 -8 -213 3 -213 12 0 5 9 9 20 9 32 0 32 19 2
100 l-28 75 -73 5 c-47 3 -76 1 -82 -6 -10 -12 -59 -151 -59 -166 0 -5 4 -6
10 -3 13 8 80 -5 80 -16 0 -5 -43 -9 -95 -9 -92 0 -125 12 -70 26 31 8 44 33
115 210 62 154 68 166 80 159 7 -4 -12 -66 -45 -147 -6 -16 0 -18 54 -18 44 0
61 4 61 13 0 20 -31 110 -43 125 -8 10 -7 16 3 22 9 6 -1 11 -30 17 -24 4 -45
14 -48 21 -3 9 23 12 103 12 68 0 104 -4 100 -10z m593 -18 c22 -16 32 -32 32
-49 0 -44 -30 -93 -71 -114 -22 -11 -39 -22 -39 -25 0 -3 4 -3 9 0 4 3 23 -16
41 -42 19 -26 60 -79 92 -119 54 -66 57 -72 36 -75 -26 -4 -135 80 -212 162
-33 35 -54 50 -78 52 -50 5 -48 28 3 28 38 0 48 5 91 50 l47 49 -29 33 c-36
39 -121 64 -152 44 -18 -10 -19 -22 -14 -196 2 -102 5 -186 5 -188 1 -2 10 -1
21 3 24 8 90 -4 90 -16 0 -5 -54 -9 -120 -9 -73 0 -120 4 -120 10 0 6 10 10
23 10 44 0 46 7 49 203 l3 187 -22 1 c-42 3 -46 4 -51 18 -4 11 25 13 164 9
157 -3 172 -5 202 -26z m-7088 8 c0 -5 -5 -10 -11 -10 -5 0 -7 5 -4 10 3 6 8
10 11 10 2 0 4 -4 4 -10z m-85 -10 c3 -5 -1 -10 -10 -10 -9 0 -13 5 -10 10 3
6 8 10 10 10 2 0 7 -4 10 -10z m215 -25 c0 -12 -29 -3 -34 10 -4 13 -2 14 14
5 11 -6 20 -13 20 -15z m-640 -15 c-6 -11 -15 -18 -21 -14 -6 4 -6 11 2 20 17
21 31 17 19 -6z m-330 0 c0 -5 -4 -10 -10 -10 -5 0 -10 5 -10 10 0 6 5 10 10
10 6 0 10 -4 10 -10z m4375 -94 c24 -48 34 -103 17 -92 -10 6 -8 -47 2 -85 6
-19 3 -28 -8 -32 -9 -4 -16 -14 -16 -24 0 -10 -10 -24 -21 -31 -19 -12 -25
-10 -53 17 -18 17 -48 60 -67 96 -33 63 -54 79 -65 52 -11 -29 -21 -163 -13
-171 13 -15 11 -26 -5 -26 -19 0 -42 30 -30 38 5 4 10 45 11 92 2 47 9 105 16
130 19 64 40 60 100 -20 94 -128 83 -117 103 -98 16 16 16 24 6 79 -6 34 -22
83 -36 109 -14 26 -22 50 -19 54 11 11 52 -35 78 -88z m-3955 74 c0 -5 -4 -10
-10 -10 -5 0 -10 5 -10 10 0 6 5 10 10 10 6 0 10 -4 10 -10z m1855 0 c3 -5 -1
-10 -10 -10 -9 0 -13 5 -10 10 3 6 8 10 10 10 2 0 7 -4 10 -10z m-1745 -20 c0
-5 -5 -10 -11 -10 -5 0 -7 5 -4 10 3 6 8 10 11 10 2 0 4 -4 4 -10z m500 0 c0
-5 -4 -10 -9 -10 -6 0 -13 5 -16 10 -3 6 1 10 9 10 9 0 16 -4 16 -10z m1655 0
c3 -5 1 -10 -4 -10 -6 0 -11 5 -11 10 0 6 2 10 4 10 3 0 8 -4 11 -10z m-285
-16 c0 -8 -4 -12 -10 -9 -5 3 -10 10 -10 16 0 5 5 9 10 9 6 0 10 -7 10 -16z
m2480 1 c0 -2 -18 -32 -39 -65 -51 -79 -69 -129 -50 -141 22 -14 25 -12 49 34
21 38 39 55 132 125 44 31 74 29 97 -9 17 -28 18 -35 4 -87 -8 -32 -17 -67
-20 -80 -10 -42 -133 -126 -133 -91 0 5 6 9 13 9 7 0 22 6 32 14 15 11 7 10
-32 -3 -28 -9 -49 -19 -46 -23 2 -5 -2 -8 -11 -8 -8 0 -23 -3 -33 -6 -15 -5
-14 -2 4 14 12 11 19 23 15 27 -10 10 28 35 54 35 32 0 127 84 141 125 10 30
10 33 -4 28 -13 -5 -15 -2 -11 15 5 18 2 22 -17 22 -20 0 -38 -17 -120 -113
-9 -10 -13 -22 -10 -27 3 -5 0 -7 -8 -4 -14 5 -54 -62 -43 -73 3 -3 -3 -13
-13 -22 -35 -30 -97 -260 -80 -293 16 -30 4 -32 -27 -4 -23 20 -26 27 -15 35
10 6 12 19 7 45 -5 23 -2 43 7 58 8 13 20 50 27 83 7 33 18 66 23 73 7 9 6 17
-1 24 -7 7 -12 19 -12 28 1 11 6 9 20 -9 26 -30 25 -21 -1 23 -33 57 -14 136
52 211 27 31 49 44 49 30z m-1219 -21 c10 -12 10 -20 1 -35 -14 -22 -16 -127
-3 -163 7 -16 6 -35 -2 -56 -10 -25 -9 -32 3 -40 12 -8 12 -10 -3 -16 -25 -9
-50 3 -43 22 3 8 2 23 -3 32 -9 18 2 243 14 262 9 14 20 13 36 -6z m387 10
c36 -10 20 -29 -26 -30 -122 -3 -197 -16 -216 -35 -26 -29 -12 -38 74 -44 118
-9 136 -14 163 -40 25 -26 25 -36 3 -100 -11 -31 -66 -64 -118 -71 -48 -7
-106 2 -94 13 4 4 -12 16 -36 27 -47 23 -68 55 -27 40 46 -16 164 -9 200 12
65 38 38 84 -49 84 -20 0 -65 6 -99 13 -34 8 -64 10 -65 5 -2 -5 -11 -6 -20
-3 -13 5 -15 15 -11 43 7 47 11 51 75 73 53 18 197 26 246 13z m675 -8 c29
-22 21 -38 -17 -31 -22 5 -44 1 -65 -9 -17 -10 -41 -14 -55 -10 -19 5 -25 1
-30 -21 -4 -15 -4 -30 -1 -33 3 -3 33 -8 66 -10 83 -6 73 -27 -14 -27 -36 -1
-70 -5 -74 -10 -4 -4 -1 -5 7 -1 12 6 11 4 -1 -6 -16 -13 -53 -78 -47 -82 2
-2 39 3 83 9 78 12 125 6 125 -15 0 -5 -7 -10 -15 -10 -8 0 -35 -15 -59 -34
-44 -33 -101 -52 -127 -41 -23 9 -55 58 -41 63 7 2 12 15 12 28 0 14 -4 22
-10 19 -17 -11 -11 1 15 29 28 31 32 46 10 46 -8 0 -15 7 -15 15 0 8 6 15 14
15 15 0 27 21 31 58 2 16 -1 22 -10 18 -15 -5 -53 19 -44 28 3 3 28 9 55 12
27 3 51 7 53 10 11 10 138 2 154 -10z m-394 -66 c0 -8 -7 1 -14 20 -18 46 -17
64 0 25 8 -16 14 -37 14 -45z m-3804 50 c3 -5 1 -10 -4 -10 -6 0 -11 5 -11 10
0 6 2 10 4 10 3 0 8 -4 11 -10z m1755 2 c0 -13 -12 -22 -22 -16 -10 6 -1 24
13 24 5 0 9 -4 9 -8z m340 -2 c0 -5 -4 -10 -10 -10 -5 0 -10 5 -10 10 0 6 5
10 10 10 6 0 10 -4 10 -10z m-804 -38 c-6 -5 -36 23 -36 34 0 4 9 -1 20 -11
11 -10 18 -20 16 -23z m-2106 19 c0 -6 -4 -13 -10 -16 -5 -3 -10 1 -10 9 0 9
5 16 10 16 6 0 10 -4 10 -9z m1030 -11 c0 -5 -4 -10 -10 -10 -5 0 -10 5 -10
10 0 6 5 10 10 10 6 0 10 -4 10 -10z m410 0 c0 -5 -2 -10 -4 -10 -3 0 -8 5
-11 10 -3 6 -1 10 4 10 6 0 11 -4 11 -10z m2818 3 c-10 -2 -28 -2 -40 0 -13 2
-5 4 17 4 22 1 32 -1 23 -4z m732 3 c0 -3 -4 -8 -10 -11 -5 -3 -10 -1 -10 4 0
6 5 11 10 11 6 0 10 -2 10 -4z m-4855 -16 c3 -5 1 -10 -4 -10 -6 0 -11 5 -11
10 0 6 2 10 4 10 3 0 8 -4 11 -10z m5155 -30 c-22 -31 -49 -54 -35 -29 10 17
47 59 52 59 3 0 -5 -13 -17 -30z m394 24 c17 -7 22 -34 6 -34 -5 0 -10 -7 -10
-16 0 -26 -44 -13 -48 15 -5 32 19 48 52 35z m407 -83 c-8 -22 -9 -19 -10 24
0 42 2 46 10 26 6 -15 6 -34 0 -50z m-5141 19 c0 -5 -5 -10 -11 -10 -5 0 -7 5
-4 10 3 6 8 10 11 10 2 0 4 -4 4 -10z m305 -20 c3 -5 1 -10 -4 -10 -6 0 -11 5
-11 10 0 6 2 10 4 10 3 0 8 -4 11 -10z m305 6 c0 -3 -4 -8 -10 -11 -5 -3 -10
-1 -10 4 0 6 5 11 10 11 6 0 10 -2 10 -4z m-530 -26 c0 -5 -4 -10 -10 -10 -5
0 -10 5 -10 10 0 6 5 10 10 10 6 0 10 -4 10 -10z m832 -83 c16 -5 112 -146
106 -153 -3 -2 -19 16 -37 41 -18 25 -34 45 -37 45 -20 0 40 -93 117 -181 55
-63 199 -280 199 -299 0 -6 4 -10 9 -10 5 0 12 -7 15 -16 3 -8 2 -12 -4 -9
-13 8 -140 192 -140 203 0 5 -7 15 -15 22 -13 11 -14 10 -9 -5 13 -34 -15 -6
-58 58 -68 100 -228 370 -228 386 0 7 16 -6 34 -31 19 -25 41 -48 48 -51z
m2330 82 c29 -6 57 -15 61 -19 13 -12 -62 -20 -89 -9 -35 13 -98 11 -112 -3
-9 -9 -12 -8 -12 5 0 10 13 20 33 26 44 13 58 13 119 0z m-3312 -60 c0 -14
-17 -10 -23 5 -4 10 -1 13 9 9 7 -3 14 -9 14 -14z m1680 11 c0 -5 -4 -10 -10
-10 -5 0 -10 5 -10 10 0 6 5 10 10 10 6 0 10 -4 10 -10z m-2114 -29 c0 -15 -3
-17 -13 -9 -7 6 -10 14 -7 19 9 15 20 10 20 -10z m784 9 c0 -5 -2 -10 -4 -10
-3 0 -8 5 -11 10 -3 6 -1 10 4 10 6 0 11 -4 11 -10z m-300 -10 c0 -5 -10 -10
-22 -10 -19 0 -20 2 -8 10 19 13 30 13 30 0z m345 -10 c3 -5 1 -10 -4 -10 -6
0 -11 5 -11 10 0 6 2 10 4 10 3 0 8 -4 11 -10z m-468 -6 c-3 -3 -12 -4 -19 -1
-8 3 -5 6 6 6 11 1 17 -2 13 -5z m285 -26 c-7 -7 -12 -8 -12 -2 0 14 12 26 19
19 2 -3 -1 -11 -7 -17z m-672 -18 c0 -5 -2 -10 -4 -10 -3 0 -8 5 -11 10 -3 6
-1 10 4 10 6 0 11 -4 11 -10z m250 -60 c0 -5 -7 -10 -16 -10 -8 0 -12 5 -9 10
3 6 10 10 16 10 5 0 9 -4 9 -10z m2718 -7 c-10 -2 -26 -2 -35 0 -10 3 -2 5 17
5 19 0 27 -2 18 -5z m-2053 -43 c-3 -5 -11 -10 -16 -10 -6 0 -7 5 -4 10 3 6
11 10 16 10 6 0 7 -4 4 -10z m65 0 c0 -5 -2 -10 -4 -10 -3 0 -8 5 -11 10 -3 6
-1 10 4 10 6 0 11 -4 11 -10z m-190 -60 c0 -5 -4 -10 -10 -10 -5 0 -10 5 -10
10 0 6 5 10 10 10 6 0 10 -4 10 -10z m8100 -39 c-16 -30 -12 -36 10 -16 11 10
20 15 20 11 0 -8 -23 -49 -31 -56 -4 -3 -14 -21 -23 -40 -9 -19 -30 -53 -46
-75 -17 -22 -41 -56 -54 -75 -27 -40 -91 -110 -101 -110 -4 0 0 11 9 25 9 14
21 37 26 53 l10 27 -19 -25 c-20 -25 -20 -25 -18 -2 1 12 5 22 9 22 4 0 8 5 8
11 0 16 58 97 100 141 21 21 36 38 33 38 -2 0 12 20 33 45 39 48 51 57 34 26z
m-7630 -11 c0 -5 -5 -10 -11 -10 -5 0 -7 5 -4 10 3 6 8 10 11 10 2 0 4 -4 4
-10z m-725 -10 c-3 -5 -11 -10 -16 -10 -6 0 -7 5 -4 10 3 6 11 10 16 10 6 0 7
-4 4 -10z m1110 -117 c27 -40 34 -71 9 -38 -20 26 -46 75 -40 75 3 0 17 -17
31 -37z m-187 -3 c10 -16 10 -20 -2 -20 -7 0 -16 9 -19 20 -3 11 -2 20 2 20 3
0 12 -9 19 -20z m376 -137 c36 -57 62 -103 57 -103 -9 0 -32 32 -116 165 -31
50 -46 79 -32 65 14 -14 54 -71 91 -127z m4069 -80 c-7 -2 -21 -2 -30 0 -10 3
-4 5 12 5 17 0 24 -2 18 -5z m-5723 -83 c0 -5 -4 -10 -10 -10 -5 0 -10 5 -10
10 0 6 5 10 10 10 6 0 10 -4 10 -10z m1605 0 c-3 -5 -10 -10 -16 -10 -5 0 -9
5 -9 10 0 6 7 10 16 10 8 0 12 -4 9 -10z m6925 0 c0 -5 -14 -10 -31 -10 -17 0
-28 4 -24 10 3 6 17 10 31 10 13 0 24 -4 24 -10z m-9573 -166 c-9 -9 -28 6
-21 18 4 6 10 6 17 -1 6 -6 8 -13 4 -17z m10283 -91 c0 -6 -4 -15 -10 -18 -6
-3 -7 1 -4 9 3 9 2 16 -4 16 -17 0 -34 -28 -28 -48 4 -12 -1 -25 -13 -36 -21
-19 -45 -13 -71 18 -16 20 1 43 48 63 18 7 38 25 45 40 l11 26 13 -29 c7 -16
12 -34 13 -41z m-8990 -733 c0 -5 -2 -10 -4 -10 -3 0 -8 5 -11 10 -3 6 -1 10
4 10 6 0 11 -4 11 -10z m585 -259 c3 -5 1 -12 -5 -16 -5 -3 -10 1 -10 9 0 18
6 21 15 7z m959 -468 c3 -4 14 -8 24 -9 9 -1 49 -10 87 -19 39 -9 81 -19 95
-22 31 -6 599 -137 698 -160 63 -15 74 -15 82 -3 5 8 12 11 15 8 12 -11 -5
-28 -27 -28 -27 0 -100 13 -288 52 -80 17 -154 32 -165 34 -11 2 -38 8 -60 13
-156 38 -223 54 -240 56 -54 9 -190 48 -193 56 -2 5 -7 7 -12 4 -4 -3 -23 2
-41 10 -32 13 -33 14 -8 15 14 0 29 -3 33 -7z m6059 -90 c-7 -2 -19 -2 -25 0
-7 3 -2 5 12 5 14 0 19 -2 13 -5z m-5113 -83 c0 -13 -11 -13 -30 0 -12 8 -11
10 8 10 12 0 22 -4 22 -10z m92 -12 c16 -6 26 -17 25 -28 0 -10 -7 -16 -14
-13 -7 3 -11 9 -10 14 1 5 -16 18 -38 29 -40 20 -17 19 37 -2z m138 -28 c13
-9 13 -10 0 -10 -8 0 -22 5 -30 10 -13 9 -13 10 0 10 8 0 22 -5 30 -10z m4315
-10 c3 -5 -1 -10 -9 -10 -9 0 -16 5 -16 10 0 6 4 10 9 10 6 0 13 -4 16 -10z
m-118 -16 c-3 -3 -12 -4 -19 -1 -8 3 -5 6 6 6 11 1 17 -2 13 -5z m-46 -14
c137 1 150 -6 116 -63 -12 -21 -62 -101 -111 -180 -75 -120 -160 -255 -342
-549 -16 -26 -88 -141 -160 -255 -142 -225 -256 -408 -409 -658 -134 -219
-204 -325 -216 -325 -5 0 -2 11 7 25 11 17 13 25 4 25 -7 0 -10 7 -6 15 3 8
-1 21 -9 29 -8 7 -11 17 -7 22 4 5 -1 3 -10 -4 -15 -12 -17 -8 -24 35 -3 26
-13 60 -21 74 -14 23 -14 29 2 60 10 19 33 51 51 72 19 20 34 42 34 47 0 13
37 50 50 50 6 0 20 16 31 35 12 19 25 32 30 29 12 -7 11 3 -1 27 -8 15 -7 19
5 19 8 0 15 -7 15 -16 0 -8 5 -12 11 -9 6 4 8 14 5 22 -4 11 -2 13 9 9 12 -4
14 0 9 21 -5 20 -4 24 6 18 10 -6 12 -3 8 13 -5 19 -3 21 18 16 22 -6 23 -4
18 25 -5 24 -3 31 10 31 9 0 16 5 16 10 0 6 -5 10 -12 10 -6 0 -8 3 -5 6 4 4
12 2 20 -4 10 -9 13 -5 14 16 1 47 12 77 33 91 11 7 20 20 20 27 0 8 7 14 15
14 10 0 15 10 15 31 0 32 22 63 35 51 5 -4 5 -1 1 6 -4 7 -2 12 5 12 10 0 10
3 1 12 -7 7 -12 19 -12 28 0 12 2 12 9 1 5 -8 11 -9 15 -3 3 6 2 13 -4 17 -6
4 -6 12 -1 23 5 9 12 24 16 32 14 36 32 59 40 52 5 -4 5 -2 2 4 -3 6 3 21 14
32 11 12 16 22 12 22 -4 0 -1 5 7 10 9 6 10 10 3 10 -6 0 -33 -27 -59 -60 -26
-33 -49 -60 -51 -60 -6 0 2 12 89 140 91 135 117 169 118 154 0 -6 -9 -22 -21
-35 -12 -13 -29 -41 -40 -61 -10 -20 -23 -39 -29 -43 -5 -3 -10 -11 -10 -18 0
-8 3 -8 11 0 6 6 18 9 25 6 8 -3 14 0 14 7 0 6 -4 8 -10 5 -5 -3 -10 -1 -10 4
0 6 5 11 10 11 6 0 10 6 10 13 0 6 23 36 50 65 28 30 48 58 45 63 -4 5 2 6 11
2 13 -5 16 -3 11 10 -4 10 -2 17 4 17 6 0 8 7 5 16 -3 8 -2 12 4 9 6 -4 18 2
28 11 16 17 16 18 0 11 -23 -8 -23 -2 4 33 12 16 19 32 17 34 -3 3 -20 -15
-39 -40 -19 -25 -45 -57 -58 -72 l-23 -27 17 30 c25 41 97 145 164 235 91 121
143 200 138 206 -5 4 -92 -108 -168 -217 -14 -20 -115 -165 -225 -323 -211
-303 -321 -462 -529 -771 -110 -162 -184 -263 -150 -205 5 9 79 121 165 250
161 243 179 272 162 255 -19 -19 -362 -525 -406 -600 -15 -25 -12 -24 19 10
l37 40 -24 -43 c-22 -41 -26 -43 -59 -38 -19 3 -73 10 -120 16 -46 6 -86 13
-89 15 -2 3 9 15 25 27 16 13 49 41 74 63 25 22 72 58 104 80 94 64 198 183
213 244 3 15 11 29 16 33 6 3 11 41 13 83 4 100 14 165 25 165 5 0 9 6 9 14 0
8 7 16 15 20 8 3 15 12 15 21 0 8 6 15 13 15 7 0 24 12 38 28 14 15 34 34 45
43 10 9 28 29 39 45 11 16 46 55 78 87 31 32 57 62 58 65 0 4 20 23 44 42 24
19 46 42 49 50 4 8 30 40 59 72 70 75 77 85 70 92 -4 3 1 6 11 6 9 0 16 6 15
13 -4 21 24 68 37 63 15 -6 38 19 30 32 -3 6 2 16 11 23 14 12 16 12 8 -1 -8
-13 -6 -13 7 -2 9 8 14 20 11 28 -4 10 0 12 12 8 14 -6 16 -3 10 17 -4 14 -3
19 2 12 6 -9 32 16 86 82 42 52 77 99 77 105 0 10 -15 13 -60 11 -18 -1 -9 6
29 24 82 38 138 55 158 48 12 -4 15 -3 8 5 -5 5 -19 13 -30 16 -11 3 -6 3 10
0 17 -3 82 -5 146 -4z m-331 -55 c0 -8 -72 -35 -80 -30 -5 3 -36 -2 -70 -11
-34 -8 -64 -14 -66 -11 -3 3 7 8 21 11 14 4 23 11 20 15 -3 5 3 7 12 5 10 -2
47 2 83 10 77 17 80 17 80 11z m-3343 -21 c-3 -3 -12 -4 -19 -1 -8 3 -5 6 6 6
11 1 17 -2 13 -5z m3130 0 c-3 -3 -12 -4 -19 -1 -8 3 -5 6 6 6 11 1 17 -2 13
-5z m-3646 -119 c58 -89 112 -185 105 -185 -2 0 -29 39 -59 88 -109 176 -142
248 -46 97z m969 14 c0 -11 -7 -19 -16 -19 -8 0 -12 5 -9 10 4 6 -12 10 -41
10 -56 0 -53 8 7 19 51 9 59 7 59 -20z m70 6 c23 -9 28 -14 15 -14 -11 0 -31
6 -45 14 -31 18 -16 18 30 0z m2185 -30 c-27 -7 -61 -13 -75 -13 -14 0 0 6 30
13 72 17 110 16 45 0z m-112 -22 c-7 -2 -19 -2 -25 0 -7 3 -2 5 12 5 14 0 19
-2 13 -5z m-559 -112 c5 -8 -85 -23 -93 -16 -1 2 0 8 4 14 7 13 82 15 89 2z
m-474 -99 c30 -37 15 -40 -23 -4 -18 18 -38 32 -45 32 -7 0 -12 2 -12 4 0 2
-3 12 -6 21 -9 23 60 -19 86 -53z m1620 58 c0 -5 -4 -10 -10 -10 -5 0 -10 5
-10 10 0 6 5 10 10 10 6 0 10 -4 10 -10z m-1240 -421 c80 -5 176 -16 215 -24
136 -29 244 -103 290 -201 23 -49 27 -70 28 -169 1 -62 -1 -116 -5 -120 -3 -4
-25 -9 -47 -12 -44 -6 -96 10 -105 33 -9 22 -20 16 -40 -21 -11 -19 -23 -35
-27 -35 -4 0 4 21 18 46 22 39 25 54 20 100 -10 99 -73 178 -167 209 -55 18
-279 46 -295 37 -5 -4 44 -12 110 -19 140 -14 192 -30 252 -79 48 -39 55 -55
21 -47 -14 4 -19 2 -15 -3 5 -5 -8 -14 -30 -21 -26 -8 -31 -12 -15 -12 33 -1
26 -21 -8 -21 -19 0 -34 7 -42 20 -7 11 -18 20 -24 20 -6 0 -29 7 -50 16 -22
9 -50 18 -64 20 -14 2 -77 13 -140 25 -63 11 -132 21 -152 21 -21 0 -38 2 -38
4 0 2 12 10 28 18 25 14 25 15 5 16 -12 0 -25 -5 -28 -11 -12 -19 -49 -27 -78
-16 -21 7 -25 12 -16 18 7 4 10 11 7 15 -10 9 -162 10 -228 1 -137 -18 -136
-18 -118 -7 27 17 158 30 373 39 l200 8 -180 1 c-375 3 -502 -31 -580 -157
-37 -59 -44 -91 -20 -91 16 0 128 -74 147 -98 11 -13 10 -14 -9 -4 -16 9 -22
9 -25 0 -3 -9 -12 -8 -31 5 -24 16 -28 16 -33 2 -5 -13 -21 -15 -80 -14 l-75
2 17 25 c15 23 13 22 -31 -8 -25 -17 -49 -29 -52 -26 -4 3 -4 7 -2 9 48 34
119 89 119 93 0 3 -21 -10 -47 -29 -82 -58 -76 -62 -71 54 6 131 29 188 102
257 121 115 229 138 646 141 124 0 290 -4 370 -10z m751 -31 c-11 -18 -28 -48
-36 -66 -9 -18 -19 -31 -24 -28 -4 3 -18 -13 -32 -34 -13 -22 -28 -40 -33 -40
-9 0 10 31 58 94 17 23 42 58 56 78 30 45 40 42 11 -4z m-508 25 c-7 -2 -19
-2 -25 0 -7 3 -2 5 12 5 14 0 19 -2 13 -5z m44 -9 c-3 -3 -12 -4 -19 -1 -8 3
-5 6 6 6 11 1 17 -2 13 -5z m-1577 -171 c-1 -11 -40 37 -40 49 0 6 9 -1 20
-15 11 -14 20 -29 20 -34z m719 -33 l-24 -20 33 6 c25 5 32 3 32 -10 0 -9 -5
-16 -11 -16 -5 0 -7 5 -4 10 10 16 -11 12 -25 -5 -11 -13 -14 -13 -26 2 -12
16 -10 20 7 36 12 9 26 17 31 17 6 0 0 -9 -13 -20z m71 16 c0 -3 -4 -8 -10
-11 -5 -3 -10 -1 -10 4 0 6 5 11 10 11 6 0 10 -2 10 -4z m-284 -25 c-17 -18
-71 -27 -60 -9 3 5 14 6 23 3 10 -3 24 1 31 10 7 8 15 15 18 15 3 0 -3 -8 -12
-19z m349 9 c-28 -12 -37 -12 -30 0 3 6 16 10 28 9 21 0 21 -1 2 -9z m1369
-37 c-24 -37 -64 -86 -64 -78 0 10 74 114 78 110 2 -2 -4 -16 -14 -32z m-1674
-5 c0 -6 -6 -5 -15 2 -8 7 -15 14 -15 16 0 2 7 1 15 -2 8 -4 15 -11 15 -16z
m95 1 c-9 -13 -41 -16 -51 -4 -8 8 -2 11 22 11 18 0 31 -3 29 -7z m1634 -10
c-22 -13 -31 -11 -17 5 7 8 17 12 22 9 4 -3 2 -9 -5 -14z m-2889 -40 c15 -28
5 -23 -15 7 -9 15 -12 23 -6 20 6 -4 16 -16 21 -27z m1079 -21 c-10 -7 -8 -7
9 -3 23 7 27 -1 13 -24 -5 -8 -16 -11 -24 -8 -8 3 -19 1 -24 -4 -5 -5 -9 1
-11 15 -1 13 5 27 13 30 21 8 19 26 -2 26 -15 0 -16 2 -3 9 20 14 49 -27 29
-41z m-78 -7 c-9 -27 -20 -47 -24 -44 -9 6 0 40 19 71 21 33 22 27 5 -27z
m913 35 c53 -10 75 -20 93 -40 35 -41 28 -49 -10 -11 -44 44 -98 50 -422 50
-267 -1 -342 -10 -392 -47 l-28 -22 24 27 c23 25 72 41 156 51 89 10 516 4
579 -8z m266 -36 c0 -5 -5 -10 -11 -10 -5 0 -7 5 -4 10 3 6 8 10 11 10 2 0 4
-4 4 -10z m483 -165 c-3 -9 -8 -14 -10 -11 -3 3 -2 9 2 15 9 16 15 13 8 -4z
m-2512 -50 l10 -20 -16 20 c-9 11 -21 29 -26 40 l-10 20 16 -20 c9 -11 21 -29
26 -40z m2477 -5 c-22 -30 -35 -41 -22 -17 9 16 36 47 41 47 2 0 -6 -13 -19
-30z m-398 -20 c0 -5 9 -10 19 -10 10 0 29 -9 42 -21 l24 -20 -27 5 c-21 5
-26 3 -22 -8 8 -20 -32 -39 -68 -32 -28 5 -29 4 -17 -11 12 -15 12 -16 -8 -11
-17 5 -20 2 -16 -11 4 -9 3 -13 -1 -10 -4 4 -63 -13 -131 -36 -68 -23 -122
-39 -120 -35 5 8 -37 -6 -97 -33 -21 -10 -47 -17 -58 -17 -11 0 -20 -4 -20 -9
0 -4 -21 -13 -47 -19 -27 -6 -86 -24 -133 -41 -47 -17 -93 -31 -103 -31 -11 0
-15 -4 -11 -12 4 -7 3 -8 -5 -4 -16 10 -53 -3 -45 -16 5 -7 1 -9 -9 -5 -8 3
-32 -3 -52 -13 -46 -23 -74 -17 -49 11 9 11 12 19 7 19 -15 0 -30 -21 -38 -52
-5 -19 -11 -25 -23 -21 -10 4 -13 2 -8 -5 4 -8 0 -12 -11 -12 -14 0 -15 -2 -5
-9 21 -13 -14 -23 -54 -15 -40 7 -50 19 -33 40 6 8 9 17 6 20 -10 10 -67 -90
-66 -116 0 -24 1 -24 9 -4 12 30 30 40 30 17 1 -17 2 -16 16 2 15 20 15 20 20
-2 4 -12 12 -19 19 -17 8 3 12 -2 12 -13 -1 -12 4 -17 16 -17 14 2 15 -1 6
-12 -14 -17 -33 -19 -23 -1 4 7 3 9 -2 4 -5 -5 -9 -13 -9 -19 0 -6 -20 -27
-45 -47 -25 -19 -37 -26 -27 -15 22 27 22 34 -4 34 -15 0 -19 5 -15 15 3 8 1
15 -5 15 -6 0 -9 7 -5 15 3 8 1 15 -4 15 -13 0 -12 16 0 60 11 40 66 101 123
137 38 24 549 201 531 184 -5 -5 -63 -27 -129 -49 -221 -74 -300 -103 -310
-114 -12 -12 45 -2 90 17 16 7 57 22 90 33 33 11 125 43 205 71 80 29 196 69
257 91 105 36 179 69 128 56 -72 -18 -68 -12 15 22 52 22 111 47 130 55 41 19
60 21 60 7z m-730 -20 c-8 -5 -19 -10 -25 -10 -5 0 -3 5 5 10 8 5 20 10 25 10
6 0 3 -5 -5 -10z m-1300 -30 c6 -11 8 -20 6 -20 -3 0 -10 9 -16 20 -6 11 -8
20 -6 20 3 0 10 -9 16 -20z m2373 -10 c-9 -16 -21 -30 -25 -30 -5 0 1 14 14
30 12 17 23 30 25 30 2 0 -4 -13 -14 -30z m-219 -2 c-8 -22 -78 -66 -138 -89
-82 -30 -79 -18 4 16 38 15 84 41 102 56 38 33 39 33 32 17z m316 2 c0 -5 -4
-10 -10 -10 -5 0 -10 5 -10 10 0 6 5 10 10 10 6 0 10 -4 10 -10z m-1343 -26
c-3 -3 -12 -4 -19 -1 -8 3 -5 6 6 6 11 1 17 -2 13 -5z m458 -74 c-27 -12 -43
-12 -25 0 8 5 22 9 30 9 10 0 8 -3 -5 -9z m196 -71 c-30 -10 -56 -17 -58 -15
-5 5 77 34 97 34 8 1 -9 -8 -39 -19z m-96 -34 c-16 -8 -136 -49 -265 -91 -129
-42 -262 -89 -295 -105 -57 -27 -58 -28 -31 -5 27 22 104 51 496 182 98 33
147 43 95 19z m115 -199 c0 -19 -3 -37 -8 -39 -4 -3 -28 -3 -54 0 l-47 6 26
33 c18 25 33 34 54 34 26 0 29 -3 29 -34z m72 -70 c7 4 8 2 4 -4 -13 -22 -35
-14 -28 11 5 18 7 19 10 4 2 -9 8 -14 14 -11z m-227 4 c3 -5 2 -10 -4 -10 -5
0 -13 5 -16 10 -3 6 -2 10 4 10 5 0 13 -4 16 -10z m265 -14 c0 -2 -7 -7 -16
-10 -8 -3 -12 -2 -9 4 6 10 25 14 25 6z m-1180 -175 c0 -22 -4 -43 -10 -46 -6
-4 -10 12 -10 39 0 25 5 46 10 46 6 0 10 -18 10 -39z m30 -27 c0 -8 -5 -12
-10 -9 -6 4 -8 11 -5 16 9 14 15 11 15 -7z m-310 -34 c6 -11 8 -20 6 -20 -3 0
-10 9 -16 20 -6 11 -8 20 -6 20 3 0 10 -9 16 -20z m296 2 c-3 -5 -29 -23 -58
-41 -58 -36 -55 -29 7 18 39 30 61 40 51 23z m-149 -64 c-3 -7 -5 -2 -5 12 0
14 2 19 5 13 2 -7 2 -19 0 -25z m613 -2 c75 -8 117 -15 95 -17 -22 -1 -51 -2
-65 -1 -39 4 -151 -9 -146 -16 2 -4 -55 -6 -127 -4 -174 4 -178 4 -165 20 17
20 -22 15 -59 -8 -44 -26 -42 -17 2 13 34 23 45 25 183 25 81 1 208 -5 282
-12z m203 -13 c-7 -2 -19 -2 -25 0 -7 3 -2 5 12 5 14 0 19 -2 13 -5z m177 -24
c12 -7 11 -8 -6 -9 -11 0 -29 7 -40 16 -18 14 -18 15 6 8 14 -3 32 -10 40 -15z
m-930 -239 c6 -11 8 -20 6 -20 -3 0 -10 9 -16 20 -6 11 -8 20 -6 20 3 0 10 -9
16 -20z m96 -153 c14 -30 14 -31 -1 -12 -25 30 -39 59 -26 51 6 -4 18 -22 27
-39z m764 -7 c-12 -16 -24 -30 -26 -30 -3 0 4 14 16 30 12 17 24 30 26 30 3 0
-4 -13 -16 -30z m-709 -85 l10 -20 -16 20 c-9 11 -21 29 -26 40 l-10 20 16
-20 c9 -11 21 -29 26 -40z m29 -45 c6 -11 8 -20 6 -20 -3 0 -10 9 -16 20 -6
11 -8 20 -6 20 3 0 10 -9 16 -20z"/>
<path d="M5780 10005 c0 -8 4 -15 10 -15 5 0 7 7 4 15 -4 8 -8 15 -10 15 -2 0
-4 -7 -4 -15z"/>
<path d="M5810 9950 c-13 -8 -13 -10 2 -10 9 0 20 5 23 10 8 13 -5 13 -25 0z"/>
<path d="M5681 9844 c0 -11 3 -14 6 -6 3 7 2 16 -1 19 -3 4 -6 -2 -5 -13z"/>
<path d="M6230 9430 c0 -5 5 -10 10 -10 6 0 10 5 10 10 0 6 -4 10 -10 10 -5 0
-10 -4 -10 -10z"/>
<path d="M9646 7628 c1 -13 3 -26 3 -29 2 -10 51 -29 74 -28 12 0 16 3 10 6
-7 2 -13 12 -13 21 0 11 -3 13 -11 5 -12 -12 -49 -6 -49 9 0 5 9 6 20 3 25 -8
27 10 3 19 -10 3 -23 8 -29 11 -6 3 -10 -4 -8 -17z"/>
<path d="M6438 7593 c7 -3 16 -2 19 1 4 3 -2 6 -13 5 -11 0 -14 -3 -6 -6z"/>
<path d="M12749 7573 c-12 -16 -12 -17 1 -6 8 6 26 13 40 16 l25 4 -26 2 c-15
0 -33 -7 -40 -16z"/>
<path d="M9535 7560 c-27 -10 -43 -19 -34 -19 9 -1 34 5 56 13 36 13 46 12 98
-5 32 -10 68 -19 79 -19 12 1 -13 12 -54 25 -88 29 -81 29 -145 5z"/>
<path d="M10528 7553 c57 -2 147 -2 200 0 53 1 7 3 -103 3 -110 0 -154 -2 -97
-3z"/>
<path d="M11068 7543 c12 -2 30 -2 40 0 9 3 -1 5 -23 4 -22 0 -30 -2 -17 -4z"/>
<path d="M8510 7520 c-24 -6 -2 -8 68 -7 56 1 102 5 102 9 0 10 -123 8 -170
-2z"/>
<path d="M8690 7520 c0 -5 7 -10 15 -10 8 0 15 5 15 10 0 6 -7 10 -15 10 -8 0
-15 -4 -15 -10z"/>
<path d="M8730 7520 c0 -12 80 -13 98 -1 9 5 -7 9 -42 10 -31 0 -56 -3 -56 -9z"/>
<path d="M8869 7516 c9 -11 51 -14 188 -15 97 0 187 2 200 5 59 15 -4 23 -193
23 -175 1 -204 -1 -195 -13z"/>
<path d="M9590 7520 c-13 -8 -13 -10 2 -10 9 0 20 5 23 10 8 13 -5 13 -25 0z"/>
<path d="M9650 7519 c-10 -6 0 -9 34 -9 54 0 57 4 11 13 -17 3 -37 2 -45 -4z"/>
<path d="M9932 7525 c7 -7 700 -7 706 0 3 3 -156 5 -353 5 -197 0 -356 -2
-353 -5z"/>
<path d="M7600 7508 c-157 -4 -368 -12 -470 -17 l-185 -10 210 5 c715 14 1201
26 1204 30 7 6 -440 2 -759 -8z"/>
<path d="M10943 7513 c48 -2 126 -2 175 0 48 1 8 3 -88 3 -96 0 -136 -2 -87
-3z"/>
<path d="M9514 7503 c5 -10 -11 -13 -71 -13 -252 1 -1410 -11 -1523 -15 -74
-3 -205 -8 -290 -11 -177 -7 -202 -8 -435 -23 -93 -6 -264 -15 -380 -21 -115
-6 -316 -20 -445 -30 -412 -35 -470 -44 -510 -75 -23 -19 -53 -14 -73 12 -23
28 -37 30 -30 3 3 -11 9 -20 14 -20 5 0 14 -11 19 -25 5 -14 14 -25 20 -25 6
0 8 -10 5 -23 -4 -14 16 -111 45 -228 29 -112 65 -265 81 -339 97 -446 124
-508 262 -600 59 -40 74 -45 292 -90 127 -27 284 -60 350 -74 66 -14 228 -46
360 -71 132 -25 269 -52 305 -60 36 -7 169 -32 295 -55 127 -22 363 -67 525
-100 162 -32 358 -70 435 -85 77 -15 174 -35 215 -45 108 -27 462 -97 551
-110 89 -13 223 2 450 50 79 17 275 57 434 89 160 33 322 67 360 76 39 9 266
56 505 105 239 49 498 103 575 120 280 63 481 101 532 103 30 1 47 5 40 9 -7
5 2 8 23 7 68 -1 401 58 417 75 3 3 14 1 24 -5 13 -6 28 -5 51 6 l33 15 -40
-5 c-36 -5 -32 -1 41 35 152 74 182 130 264 500 16 74 57 247 90 383 33 136
60 263 60 282 0 19 6 38 14 42 8 4 26 25 40 46 20 29 24 42 16 56 -16 31 -120
57 -120 31 0 -6 -10 -8 -22 -6 -53 11 -183 16 -163 6 17 -8 15 -9 -10 -5 -86
14 -205 25 -250 23 -38 -1 -42 -2 -15 -5 19 -2 90 -10 156 -19 67 -8 141 -12
165 -10 36 4 38 4 14 -3 l-30 -9 30 -1 c17 -1 37 -6 45 -11 11 -8 9 -9 -10 -5
-32 6 -433 42 -620 55 -171 11 -665 32 -1085 45 -77 3 -212 8 -300 12 -88 4
-245 6 -348 5 -132 -2 -193 0 -202 8 -9 7 -40 10 -80 8 -36 -1 -65 0 -65 5 0
4 -111 8 -247 8 -137 1 -277 1 -313 1 -36 1 -108 -2 -160 -5 -64 -4 -85 -3
-65 3 29 9 29 9 -5 4 -84 -14 -222 -14 -238 -2 -12 10 -14 10 -8 1z m938 -20
c-40 -2 -103 -2 -140 0 -37 2 -4 3 73 3 77 0 107 -2 67 -3z m2959 -103 l24
-21 -35 17 c-43 21 -47 24 -28 24 9 0 26 -9 39 -20z m-13 -37 c-6 -7 -17 -13
-25 -13 -13 0 -13 -3 -3 -15 7 -8 9 -15 6 -15 -6 0 -63 38 -90 61 -5 4 10 5
31 2 24 -3 43 -1 47 6 5 7 12 7 26 -1 14 -9 16 -16 8 -25z m-6205 -50 c-7 -2
-21 -2 -30 0 -10 3 -4 5 12 5 17 0 24 -2 18 -5z m5054 0 c-20 -2 -52 -2 -70 0
-17 2 0 4 38 4 39 0 53 -2 32 -4z m393 -12 c3 -3 57 -8 120 -10 292 -9 289
-18 -7 -20 -192 0 -304 3 -308 9 -3 6 4 10 16 10 52 0 5 11 -82 19 -74 7 -56
8 81 4 96 -3 177 -9 180 -12z m-5746 -13 l91 -1 -110 -7 c-60 -4 -216 -7 -345
-7 l-235 0 225 12 c124 7 238 11 254 9 16 -2 70 -5 120 -6z m5499 -15 c-7 -2
-19 -2 -25 0 -7 3 -2 5 12 5 14 0 19 -2 13 -5z m-3793 -45 c19 -6 40 -15 47
-20 7 -5 18 -6 24 -2 8 4 9 3 5 -5 -4 -6 2 -23 13 -37 12 -15 21 -41 21 -59 0
-46 -85 -129 -155 -151 -61 -19 -218 -30 -195 -13 12 8 8 10 -17 7 -18 -3 -30
-2 -28 2 2 3 -11 12 -30 18 -18 7 -38 19 -45 27 -19 23 -3 81 33 122 l32 36
-170 -7 c-329 -14 -571 -69 -777 -179 -123 -65 -245 -192 -268 -279 -17 -61
-15 -149 5 -208 33 -98 151 -187 300 -225 99 -25 281 -35 630 -35 322 1 389
-5 406 -32 6 -9 12 -9 26 3 25 20 93 50 93 41 0 -4 -6 -14 -12 -21 -11 -11 -9
-12 7 -4 11 6 26 8 33 6 7 -3 -7 16 -31 41 -25 25 -50 46 -56 46 -6 0 -11 4
-11 9 0 6 -12 9 -27 8 -22 -2 -27 2 -25 16 2 14 -5 17 -47 17 -46 0 -51 -2
-57 -25 -9 -38 -27 -31 -19 8 21 100 118 204 250 267 103 50 175 68 322 80
173 14 780 13 789 -2 4 -6 3 -8 -3 -5 -6 4 -71 -14 -146 -39 l-136 -45 -62
-97 c-34 -53 -73 -114 -86 -134 -18 -26 -23 -45 -19 -63 8 -31 57 -57 104 -54
21 1 45 -2 56 -6 31 -14 285 3 363 23 91 25 152 60 231 136 57 55 152 181 152
202 0 5 14 17 30 26 19 11 28 22 24 32 -5 12 -12 9 -32 -15 -23 -28 -30 -31
-70 -26 -24 3 -49 10 -55 17 -9 10 -7 11 12 5 19 -6 23 -4 18 8 -4 11 3 19 24
26 16 5 31 9 33 8 6 -3 46 35 46 45 0 14 -20 9 -80 -18 -47 -21 -62 -24 -79
-15 -45 25 -10 114 57 147 53 26 167 31 207 10 42 -23 67 -68 63 -114 -2 -24
1 -37 10 -38 6 -1 161 -2 344 -3 202 -1 328 -5 322 -10 -5 -5 -61 -30 -125
-56 l-116 -46 -50 -72 c-28 -40 -58 -88 -68 -107 -18 -35 -18 -35 2 -17 20 18
20 17 17 -30 -1 -27 2 -50 8 -54 20 -13 -30 -31 -52 -19 -14 7 -20 7 -20 0 0
-5 7 -10 15 -10 8 0 15 -4 15 -10 0 -5 -5 -10 -11 -10 -14 0 -43 -30 -35 -37
3 -3 15 2 26 12 14 12 34 18 61 17 32 -2 40 1 36 12 -3 8 0 17 8 20 9 3 12 0
8 -11 -3 -8 0 -19 8 -24 22 -14 158 -10 276 7 196 28 355 94 540 224 54 38
133 93 175 122 69 47 77 56 72 78 -3 14 -12 30 -20 37 -25 19 -8 47 54 90 111
78 159 97 242 98 95 0 153 -25 158 -69 4 -32 -30 -76 -59 -76 -13 0 -19 -11
-24 -45 -6 -39 -3 -52 33 -117 50 -93 64 -136 64 -200 -1 -74 -18 -88 -107
-88 -43 0 -76 -5 -84 -12 -10 -11 -11 -9 -5 7 7 19 7 19 -17 -1 -13 -12 -39
-29 -56 -40 -38 -21 -42 -39 -11 -47 27 -7 35 -3 59 37 11 18 19 24 19 15 0
-9 -9 -28 -21 -43 l-20 -26 29 0 c16 0 32 3 36 7 4 4 26 14 49 23 35 12 79 14
252 10 116 -3 203 -8 195 -12 -8 -3 -28 -11 -45 -16 l-30 -10 30 -2 c30 -1 29
-1 -15 -25 l-45 -23 -547 -1 c-302 -1 -548 2 -548 6 0 5 24 25 52 46 l52 37
187 0 188 0 21 29 c13 19 25 60 32 110 11 76 11 84 -11 133 -34 78 -35 87 -16
108 19 21 15 36 -7 27 -7 -2 -81 -54 -165 -115 -83 -61 -202 -141 -262 -178
-61 -36 -111 -68 -111 -70 0 -3 9 0 19 6 11 5 29 10 40 10 10 0 21 5 23 12 3
7 11 9 24 3 19 -8 19 -8 -1 -13 -11 -2 -27 -10 -35 -17 -18 -15 -142 -62 -187
-71 -27 -5 -33 -3 -33 11 0 11 -5 15 -14 12 -8 -3 -32 -9 -53 -13 -35 -7 -36
-8 -13 -14 14 -4 31 -2 38 3 9 7 16 7 24 -1 12 -12 17 -10 -122 -38 -115 -24
-614 -23 -660 1 -61 32 -57 44 85 257 101 152 120 175 155 188 52 20 63 34 22
28 -18 -3 -35 -1 -38 4 -3 4 -88 8 -190 8 l-185 0 -24 -55 c-27 -60 -67 -127
-98 -162 -21 -23 -20 -24 22 -35 10 -3 0 -19 -32 -52 -41 -43 -49 -47 -79 -42
-31 6 -31 5 -8 -5 14 -6 20 -13 13 -16 -7 -2 -20 0 -30 5 -19 11 -53 -1 -53
-18 0 -6 9 -5 20 2 15 10 22 10 32 0 17 -17 -109 -73 -232 -103 -87 -22 -118
-24 -385 -25 -315 -2 -365 1 -392 22 -16 13 -15 13 9 5 22 -8 37 -4 84 21 55
30 134 53 134 39 0 -4 -5 -12 -12 -19 -9 -9 -9 -12 -1 -12 7 0 15 5 18 10 4 6
11 8 16 4 5 -3 7 -9 4 -14 -6 -10 34 -25 43 -15 4 4 -2 13 -12 21 -11 8 -16
14 -12 14 4 0 -3 13 -17 30 -14 16 -27 35 -29 42 -4 10 -14 10 -54 -2 -27 -8
-73 -14 -102 -15 -45 0 -57 -4 -75 -25 -32 -36 -122 -77 -203 -91 -50 -9 -276
-13 -844 -13 -847 -1 -846 -1 -1058 60 -139 40 -261 114 -294 178 -6 12 8 3
30 -19 87 -88 113 -94 251 -60 68 17 76 17 105 2 46 -24 109 -48 113 -43 2 2
-22 14 -54 27 -34 14 -87 49 -130 86 -44 38 -81 63 -95 63 -13 0 -55 -7 -93
-15 -39 -8 -84 -15 -102 -15 -27 0 -33 5 -43 36 -28 85 17 226 111 344 51 64
168 152 285 212 97 49 377 143 529 177 116 25 313 50 490 60 178 11 599 4 645
-11z m-2520 -8 c0 -5 -5 -10 -11 -10 -5 0 -7 5 -4 10 3 6 8 10 11 10 2 0 4 -4
4 -10z m190 -40 c0 -5 -6 -11 -12 -11 -7 -1 3 -5 22 -9 30 -6 26 -8 -30 -10
-36 -1 -87 -5 -115 -8 -47 -7 -50 -8 -47 -34 5 -39 -14 -35 -21 5 -4 17 -9 42
-13 55 -6 22 -6 22 105 22 67 0 111 -4 111 -10z m6868 1 c33 -1 42 -5 42 -19
0 -15 -8 -18 -47 -17 -125 3 -144 5 -138 15 4 6 -8 10 -29 10 -19 0 -38 5 -41
10 -4 7 24 9 82 6 48 -2 107 -4 131 -5z m-6745 -28 c-7 -2 -21 -2 -30 0 -10 3
-4 5 12 5 17 0 24 -2 18 -5z m6565 0 c-15 -2 -42 -2 -60 0 -18 2 -6 4 27 4 33
0 48 -2 33 -4z m-6991 -85 c-3 -7 -5 -2 -5 12 0 14 2 19 5 13 2 -7 2 -19 0
-25z m203 -17 c-8 -3 -15 -13 -15 -21 0 -8 -11 -16 -23 -18 -20 -3 -23 -8 -18
-28 10 -40 -8 -27 -22 16 -19 63 -18 65 40 61 29 -2 46 -6 38 -10z m6982 -16
c-5 -36 -24 -75 -34 -69 -5 3 -4 12 3 21 11 12 10 14 -2 12 -22 -5 -69 10 -69
22 0 6 7 9 15 5 8 -3 15 -2 15 3 0 4 -19 13 -42 19 -40 9 -38 10 37 9 74 -2
80 -4 77 -22z m-7097 -300 c103 -411 112 -443 146 -502 33 -57 83 -92 179
-124 47 -16 50 -18 16 -13 -45 6 -142 47 -169 72 -34 30 -63 85 -85 162 -43
150 -172 684 -171 708 1 26 4 15 84 -303z m119 198 c4 -3 2 -10 -5 -15 -11 -7
-11 -11 -1 -15 19 -7 14 -23 -7 -23 -11 0 -21 -6 -24 -12 -5 -13 -27 33 -27
56 0 13 46 19 64 9z m6953 -15 c-4 -13 -13 -50 -20 -83 -17 -71 -32 -130 -54
-205 -9 -30 -20 -73 -24 -95 -19 -98 -61 -225 -74 -225 -3 0 -4 3 -4 8 4 23
-5 32 -42 43 -36 11 -39 14 -24 25 10 8 12 14 6 19 -24 14 -10 34 27 37 29 2
37 7 37 23 0 14 -10 23 -32 31 -26 8 -30 13 -20 23 6 6 12 17 12 24 0 7 21 14
54 17 46 4 55 8 57 26 3 19 -22 54 -33 47 -9 -7 -43 -2 -43 7 0 6 10 10 23 10
20 1 20 2 5 11 -18 10 -25 30 -10 28 30 -5 92 3 92 11 0 6 -12 23 -27 37 -16
14 -27 30 -25 35 1 6 -2 16 -8 23 -11 14 14 25 58 25 12 0 22 4 22 9 0 5 3 16
6 25 3 9 1 16 -5 16 -6 0 -12 -8 -12 -17 -1 -17 -2 -17 -6 0 -2 9 -11 17 -18
17 -21 0 -28 19 -15 35 10 12 9 15 -6 15 -16 0 -17 2 -4 10 8 5 37 10 64 10
45 0 48 -1 43 -22z m-6920 -112 c4 -3 1 -6 -6 -6 -7 0 -9 -9 -5 -25 5 -19 2
-25 -11 -25 -12 0 -16 -6 -12 -20 3 -11 2 -20 -2 -20 -9 0 -41 97 -34 104 7 7
62 1 70 -8z m6 -145 c-4 -14 -7 -36 -8 -48 0 -13 -3 -23 -7 -23 -9 0 -28 58
-28 85 0 18 4 21 25 17 21 -4 24 -8 18 -31z m3391 -75 c-16 -19 -45 -56 -64
-81 -57 -77 -71 -92 -64 -73 4 13 -2 19 -28 27 l-33 9 37 1 c33 1 42 8 103 82
37 44 69 78 72 75 3 -3 -7 -21 -23 -40z m776 34 c0 -5 -9 -10 -21 -10 -11 0
-17 5 -14 10 3 6 13 10 21 10 8 0 14 -4 14 -10z m2640 -14 c0 -3 -4 -8 -10
-11 -5 -3 -10 -1 -10 4 0 6 5 11 10 11 6 0 10 -2 10 -4z m-6800 -62 c6 -14 14
-22 20 -19 5 3 10 2 10 -4 0 -5 -4 -13 -10 -16 -5 -3 -10 -18 -11 -33 -1 -20
-5 -14 -15 23 -15 53 -17 75 -9 75 3 0 10 -12 15 -26z m5404 -103 c7 -11 -92
-86 -101 -77 -3 3 9 20 28 36 19 17 39 35 44 40 13 12 23 12 29 1z m-5364 -54
c0 -39 -15 -25 -25 23 -7 31 -6 33 9 21 9 -7 16 -27 16 -44z m3180 33 c0 -5
-7 -10 -15 -10 -8 0 -15 5 -15 10 0 6 7 10 15 10 8 0 15 -4 15 -10z m10 -35
c-7 -9 -15 -13 -19 -10 -3 3 1 10 9 15 21 14 24 12 10 -5z m-191 -41 c-18 -19
-35 -32 -37 -29 -9 8 49 75 60 69 5 -4 -4 -21 -23 -40z m154 -12 c-38 -58 -53
-76 -59 -69 -4 4 10 27 30 52 42 50 58 60 29 17z m957 4 c0 -3 -4 -8 -10 -11
-5 -3 -10 -1 -10 4 0 6 5 11 10 11 6 0 10 -2 10 -4z m1110 -5 c0 -12 -30 -22
-43 -14 -7 4 -3 9 9 14 26 10 34 10 34 0z m1474 -51 c14 -14 -22 -63 -42 -55
-9 3 -36 9 -61 12 -37 5 -41 8 -23 14 26 10 29 35 5 43 -10 3 11 3 47 0 36 -3
69 -9 74 -14z m-6646 -8 c2 -7 8 -12 13 -12 4 0 6 8 2 18 -3 11 1 8 12 -7 15
-19 15 -25 4 -32 -23 -14 -36 -10 -53 16 -9 13 -16 26 -16 29 0 9 34 -1 38
-12z m-68 -53 c0 -6 -4 -7 -10 -4 -5 3 -10 11 -10 16 0 6 5 7 10 4 6 -3 10
-11 10 -16z m305 -69 c4 -6 -7 -10 -25 -10 -18 0 -29 -4 -25 -10 8 -13 -1 -12
-48 1 -21 5 -35 14 -32 20 8 12 122 12 130 -1z m6299 -2 c-7 -11 -133 -50
-147 -45 -6 2 5 8 26 12 20 4 37 10 37 14 0 4 -26 12 -57 18 -56 10 -55 10 44
9 55 0 99 -4 97 -8z m85 -15 c-13 -15 -69 -43 -86 -43 -10 0 79 58 91 59 5 1
2 -6 -5 -16z m-6359 -25 c11 -7 8 -8 -10 -4 -14 3 -31 6 -37 6 -7 0 -13 5 -13
11 0 11 33 4 60 -13z"/>
<path d="M7785 7154 c-332 -44 -628 -157 -809 -307 l-48 -41 26 -23 c14 -12
50 -29 79 -38 51 -15 52 -15 67 7 78 117 268 242 457 302 157 49 382 85 536
86 31 0 57 4 57 9 0 24 -204 27 -365 5z"/>
<path d="M10170 6704 c0 -16 26 -54 37 -54 20 0 76 30 69 38 -6 6 -106 21
-106 16z"/>
<path d="M10150 6670 c0 -5 5 -10 10 -10 6 0 10 5 10 10 0 6 -4 10 -10 10 -5
0 -10 -4 -10 -10z"/>
<path d="M9188 6623 c-10 -2 -18 -9 -18 -14 0 -5 -23 -9 -51 -9 -156 0 -277
-46 -369 -140 -52 -53 -56 -54 -52 -28 2 15 8 26 12 23 4 -2 16 5 26 16 17 19
17 21 -13 51 l-31 31 -39 -31 c-54 -43 -90 -84 -77 -89 6 -2 10 -24 8 -53 -2
-54 -3 -53 78 -54 10 0 18 -10 22 -27 11 -58 171 -79 235 -31 37 27 142 153
207 248 60 88 71 94 158 94 30 0 37 3 26 10 -15 10 -90 12 -122 3z m-515 -143
c3 -11 3 -20 1 -20 -2 0 -8 9 -14 20 -6 11 -7 20 -2 20 6 0 12 -9 15 -20z
m-46 -24 c-7 -15 -16 -21 -21 -16 -6 6 -4 15 4 25 19 23 29 18 17 -9z"/>
<path d="M8845 6610 c-3 -5 0 -10 7 -10 7 0 23 -3 36 -6 18 -5 21 -3 16 10 -7
18 -49 22 -59 6z"/>
<path d="M8806 6575 c10 -8 23 -15 28 -15 6 0 1 7 -10 15 -10 8 -23 15 -28 15
-6 0 -1 -7 10 -15z"/>
<path d="M12065 6335 c-3 -8 -7 -22 -10 -31 -5 -15 1 -16 47 -10 28 4 57 14
63 22 6 9 17 14 24 12 7 -2 15 2 18 8 2 8 -19 12 -67 13 -55 1 -72 -2 -75 -14z
m38 -22 c-7 -2 -19 -2 -25 0 -7 3 -2 5 12 5 14 0 19 -2 13 -5z"/>
<path d="M6820 6261 c-35 -9 -60 -20 -54 -24 16 -9 84 4 84 17 0 6 5 4 10 -4
9 -13 12 -13 21 3 5 9 15 17 21 17 6 0 5 -7 -3 -16 -12 -15 -11 -16 11 -9 42
13 42 20 0 28 -14 3 -54 -2 -90 -12z"/>
<path d="M10426 6245 c-79 -28 -91 -37 -82 -62 6 -14 9 -15 16 -3 5 8 6 18 4
22 -7 10 42 29 84 33 19 1 41 10 50 19 22 21 10 20 -72 -9z"/>
<path d="M11228 6231 c-51 -18 -70 -31 -45 -31 24 0 97 31 97 41 0 5 -1 8 -2
8 -2 -1 -24 -9 -50 -18z"/>
<path d="M10492 6201 c-41 -30 -60 -51 -45 -51 18 1 117 56 121 68 7 22 -34
13 -76 -17z"/>
<path d="M9753 6196 c-52 -14 -61 -22 -32 -31 15 -5 26 -3 33 7 6 8 27 19 46
25 46 14 7 14 -47 -1z"/>
<path d="M9103 6173 c-24 -8 -43 -19 -43 -24 0 -5 13 -3 30 6 16 8 36 15 44
15 8 0 18 5 21 10 8 13 -1 12 -52 -7z"/>
<path d="M9270 6170 c0 -5 10 -10 23 -10 18 0 19 2 7 10 -19 13 -30 13 -30 0z"/>
<path d="M10400 6160 c0 -5 4 -10 9 -10 6 0 13 5 16 10 3 6 -1 10 -9 10 -9 0
-16 -4 -16 -10z"/>
<path d="M11805 6160 c-143 -7 -141 -12 5 -15 102 -3 140 2 140 16 0 5 -3 8
-7 7 -5 -1 -66 -5 -138 -8z"/>
<path d="M12080 6160 c0 -5 7 -7 15 -4 8 4 15 8 15 10 0 2 -7 4 -15 4 -8 0
-15 -4 -15 -10z"/>
<path d="M9208 6143 c6 -2 18 -2 25 0 6 3 1 5 -13 5 -14 0 -19 -2 -12 -5z"/>
<path d="M11348 7503 c23 -2 61 -2 85 0 23 2 4 4 -43 4 -47 0 -66 -2 -42 -4z"/>
<path d="M11618 7493 c12 -2 32 -2 45 0 12 2 2 4 -23 4 -25 0 -35 -2 -22 -4z"/>
<path d="M11780 7496 c0 -8 60 -12 72 -4 8 4 -4 8 -29 8 -24 0 -43 -2 -43 -4z"/>
<path d="M11898 7493 c12 -2 32 -2 45 0 12 2 2 4 -23 4 -25 0 -35 -2 -22 -4z"/>
<path d="M6740 7479 c-96 -5 -218 -13 -270 -18 l-95 -10 100 5 c55 2 174 7
265 10 91 4 172 10 180 15 8 5 11 8 5 7 -5 0 -89 -5 -185 -9z"/>
<path d="M10738 7483 c6 -2 18 -2 25 0 6 3 1 5 -13 5 -14 0 -19 -2 -12 -5z"/>
<path d="M11998 7483 c7 -3 16 -2 19 1 4 3 -2 6 -13 5 -11 0 -14 -3 -6 -6z"/>
<path d="M12043 7483 c9 -2 25 -2 35 0 9 3 1 5 -18 5 -19 0 -27 -2 -17 -5z"/>
<path d="M12125 7480 c17 -4 41 -8 55 -9 20 0 22 1 10 9 -8 5 -33 9 -55 9 -39
-1 -39 -2 -10 -9z"/>
<path d="M12228 7473 c7 -3 16 -2 19 1 4 3 -2 6 -13 5 -11 0 -14 -3 -6 -6z"/>
<path d="M11775 7465 c24 -8 164 -11 159 -3 -3 4 -42 8 -87 7 -45 0 -77 -2
-72 -4z"/>
<path d="M12768 7453 c7 -3 16 -2 19 1 4 3 -2 6 -13 5 -11 0 -14 -3 -6 -6z"/>
<path d="M6065 7434 c-207 -18 -291 -32 -307 -52 -11 -14 -10 -15 7 -8 43 16
178 36 355 51 260 21 264 22 180 22 -41 0 -147 -6 -235 -13z"/>
<path d="M12488 7443 c7 -3 16 -2 19 1 4 3 -2 6 -13 5 -11 0 -14 -3 -6 -6z"/>
<path d="M12620 7440 c0 -7 14 -8 38 -4 51 9 53 14 4 14 -23 0 -42 -5 -42 -10z"/>
<path d="M12720 7430 c19 -13 30 -13 30 0 0 6 -10 10 -22 10 -19 0 -20 -2 -8
-10z"/>
<path d="M12779 7429 c-10 -6 -4 -9 19 -9 17 0 32 2 32 4 0 9 -39 13 -51 5z"/>
<path d="M13093 7413 c9 -2 23 -2 30 0 6 3 -1 5 -18 5 -16 0 -22 -2 -12 -5z"/>
<path d="M13288 7413 c6 -2 18 -2 25 0 6 3 1 5 -13 5 -14 0 -19 -2 -12 -5z"/>
<path d="M5791 7347 c2 -1 13 -9 24 -17 19 -14 19 -14 6 3 -7 9 -18 17 -24 17
-6 0 -8 -1 -6 -3z"/>
<path d="M5607 7070 c3 -11 7 -20 9 -20 2 0 4 9 4 20 0 11 -4 20 -9 20 -5 0
-7 -9 -4 -20z"/>
<path d="M13225 6419 c-13 -36 -45 -145 -45 -153 0 -6 3 -6 9 0 11 11 52 156
46 162 -2 3 -7 -1 -10 -9z"/>
<path d="M12848 5923 c7 -3 16 -2 19 1 4 3 -2 6 -13 5 -11 0 -14 -3 -6 -6z"/>
<path d="M12685 5895 c-5 -1 -30 -8 -55 -15 -25 -7 -52 -15 -60 -18 -8 -3 -21
-6 -28 -8 -8 -1 -17 -6 -20 -10 -11 -11 70 6 100 22 15 8 35 14 45 14 10 0 25
5 33 10 14 9 7 12 -15 5z"/>
<path d="M7018 5853 c7 -3 16 -2 19 1 4 3 -2 6 -13 5 -11 0 -14 -3 -6 -6z"/>
<path d="M12048 5843 c6 -2 18 -2 25 0 6 3 1 5 -13 5 -14 0 -19 -2 -12 -5z"/>
<path d="M11980 5830 c-20 -6 -21 -8 -5 -8 11 0 29 3 40 8 25 11 -1 11 -35 0z"/>
<path d="M12448 5833 c6 -2 18 -2 25 0 6 3 1 5 -13 5 -14 0 -19 -2 -12 -5z"/>
<path d="M12248 5793 c6 -2 18 -2 25 0 6 3 1 5 -13 5 -14 0 -19 -2 -12 -5z"/>
<path d="M7140 5750 c14 -4 36 -8 50 -8 l25 0 -25 8 c-14 4 -36 8 -50 8 l-25
0 25 -8z"/>
<path d="M7225 5740 c-3 -5 1 -10 10 -10 9 0 13 5 10 10 -3 6 -8 10 -10 10 -2
0 -7 -4 -10 -10z"/>
<path d="M7265 5731 c-7 -6 258 -60 295 -60 14 1 -11 9 -55 19 -130 30 -234
48 -240 41z"/>
<path d="M8198 5573 c7 -3 16 -2 19 1 4 3 -2 6 -13 5 -11 0 -14 -3 -6 -6z"/>
<path d="M7998 5563 c7 -3 16 -2 19 1 4 3 -2 6 -13 5 -11 0 -14 -3 -6 -6z"/>
<path d="M8255 5560 c17 -4 39 -8 50 -8 16 0 15 2 -5 8 -14 4 -36 8 -50 8 -22
0 -22 -1 5 -8z"/>
<path d="M8348 5543 c7 -3 16 -2 19 1 4 3 -2 6 -13 5 -11 0 -14 -3 -6 -6z"/>
<path d="M11065 5545 c-5 -1 -36 -8 -68 -15 -31 -6 -55 -15 -52 -19 4 -7 159
21 190 33 11 5 -55 6 -70 1z"/>
<path d="M8398 5533 c6 -2 18 -2 25 0 6 3 1 5 -13 5 -14 0 -19 -2 -12 -5z"/>
<path d="M8458 5523 c7 -3 16 -2 19 1 4 3 -2 6 -13 5 -11 0 -14 -3 -6 -6z"/>
<path d="M8548 5503 c6 -2 18 -2 25 0 6 3 1 5 -13 5 -14 0 -19 -2 -12 -5z"/>
<path d="M10908 5503 c7 -3 16 -2 19 1 4 3 -2 6 -13 5 -11 0 -14 -3 -6 -6z"/>
<path d="M8598 5493 c7 -3 16 -2 19 1 4 3 -2 6 -13 5 -11 0 -14 -3 -6 -6z"/>
<path d="M8368 5483 c7 -3 16 -2 19 1 4 3 -2 6 -13 5 -11 0 -14 -3 -6 -6z"/>
<path d="M8648 5483 c7 -3 16 -2 19 1 4 3 -2 6 -13 5 -11 0 -14 -3 -6 -6z"/>
<path d="M8428 5473 c7 -3 16 -2 19 1 4 3 -2 6 -13 5 -11 0 -14 -3 -6 -6z"/>
<path d="M8708 5473 c7 -3 16 -2 19 1 4 3 -2 6 -13 5 -11 0 -14 -3 -6 -6z"/>
<path d="M8741 5466 c8 -8 362 -77 373 -73 9 3 -347 77 -370 77 -4 0 -5 -2 -3
-4z"/>
<path d="M10430 5460 c-11 -8 -7 -9 15 -4 37 8 45 14 19 14 -10 0 -26 -5 -34
-10z"/>
<path d="M10358 5443 c7 -3 16 -2 19 1 4 3 -2 6 -13 5 -11 0 -14 -3 -6 -6z"/>
<path d="M10575 5443 c-68 -9 -135 -25 -135 -33 0 -4 8 -7 18 -5 9 2 47 9 85
16 37 6 67 15 67 20 0 5 -1 8 -2 8 -2 -1 -16 -4 -33 -6z"/>
<path d="M8608 5433 c7 -3 16 -2 19 1 4 3 -2 6 -13 5 -11 0 -14 -3 -6 -6z"/>
<path d="M10308 5433 c7 -3 16 -2 19 1 4 3 -2 6 -13 5 -11 0 -14 -3 -6 -6z"/>
<path d="M8641 5426 c2 -2 130 -29 284 -60 336 -67 547 -119 584 -142 21 -14
24 -15 13 -2 -25 31 -82 48 -333 102 -396 85 -563 116 -548 102z"/>
<path d="M10258 5423 c7 -3 16 -2 19 1 4 3 -2 6 -13 5 -11 0 -14 -3 -6 -6z"/>
<path d="M9985 5376 c-187 -40 -277 -63 -247 -65 7 -1 58 10 115 23 56 14 163
36 237 51 152 30 167 34 125 33 -16 0 -120 -19 -230 -42z"/>
<path d="M10270 5392 c-109 -23 -63 -25 55 -3 60 11 84 19 60 19 -22 -1 -74
-8 -115 -16z"/>
<path d="M9131 5386 c2 -2 63 -16 134 -31 72 -15 157 -33 189 -41 32 -8 61
-12 63 -10 6 6 -14 11 -198 51 -156 33 -198 40 -188 31z"/>
<path d="M10158 5363 c7 -3 16 -2 19 1 4 3 -2 6 -13 5 -11 0 -14 -3 -6 -6z"/>
<path d="M10055 5340 c4 -6 11 -8 16 -5 14 9 11 15 -7 15 -8 0 -12 -5 -9 -10z"/>
<path d="M9985 5330 c-3 -5 -12 -7 -20 -3 -8 3 -15 0 -15 -6 0 -17 47 -13 54
4 6 16 -9 21 -19 5z"/>
<path d="M10025 5330 c-3 -5 -1 -10 4 -10 6 0 11 5 11 10 0 6 -2 10 -4 10 -3
0 -8 -4 -11 -10z"/>
<path d="M9920 5310 c0 -5 5 -10 10 -10 6 0 10 5 10 10 0 6 -4 10 -10 10 -5 0
-10 -4 -10 -10z"/>
<path d="M9548 5278 c7 -7 12 -23 13 -37 0 -15 3 -20 6 -13 7 19 -6 62 -19 62
-9 0 -9 -3 0 -12z"/>
<path d="M10292 3516 c-7 -20 -18 -36 -23 -36 -5 0 -9 -4 -9 -10 0 -5 9 -10
21 -10 13 0 18 4 13 12 -4 7 -3 8 5 4 6 -4 9 -12 6 -17 -4 -5 -2 -9 4 -9 16 0
71 -51 65 -61 -3 -5 -1 -9 4 -9 15 0 41 35 44 60 3 19 -3 26 -32 34 -46 14
-77 37 -81 60 -3 14 -8 9 -17 -18z"/>
<path d="M10165 3390 c3 -5 8 -10 11 -10 2 0 4 5 4 10 0 6 -5 10 -11 10 -5 0
-7 -4 -4 -10z"/>
<path d="M10327 3389 c7 -7 15 -10 18 -7 3 3 -2 9 -12 12 -14 6 -15 5 -6 -5z"/>
<path d="M9546 2777 c3 -10 9 -15 12 -12 3 3 0 11 -7 18 -10 9 -11 8 -5 -6z"/>
<path d="M7230 8780 c8 -5 21 -10 29 -10 7 0 52 -18 99 -40 84 -40 130 -50 55
-12 -90 45 -231 93 -183 62z"/>
<path d="M7467 8679 c7 -7 15 -10 18 -7 3 3 -2 9 -12 12 -14 6 -15 5 -6 -5z"/>
<path d="M7667 8513 c15 -21 28 -40 30 -42 2 -2 6 -1 9 2 8 8 -43 77 -57 77
-6 0 2 -17 18 -37z"/>
<path d="M7630 8207 c-19 -12 -64 -32 -100 -44 -36 -12 -55 -22 -42 -22 29 -1
166 55 183 75 16 20 0 16 -41 -9z"/>
<path d="M7810 8722 c-43 -43 -50 -62 -22 -62 19 1 124 90 105 90 -6 0 -19 3
-27 6 -11 4 -30 -8 -56 -34z"/>
<path d="M7408 8413 c6 -2 18 -2 25 0 6 3 1 5 -13 5 -14 0 -19 -2 -12 -5z"/>
<path d="M10867 8456 c20 -26 27 -28 17 -3 -3 8 -12 18 -20 21 -11 4 -10 0 3
-18z"/>
<path d="M10969 8343 c22 -32 41 -50 41 -38 0 3 -14 20 -31 38 l-32 32 22 -32z"/>
<path d="M11460 8583 c0 -5 5 -15 10 -23 8 -12 10 -11 10 8 0 12 -4 22 -10 22
-5 0 -10 -3 -10 -7z"/>
<path d="M11570 8278 c0 -9 5 -20 10 -23 13 -8 13 5 0 25 -8 13 -10 13 -10 -2z"/>
<path d="M12096 8575 c4 -8 11 -15 16 -15 6 0 5 6 -2 15 -7 8 -14 15 -16 15
-2 0 -1 -7 2 -15z"/>
<path d="M12140 8559 c0 -5 5 -7 10 -4 6 3 10 8 10 11 0 2 -4 4 -10 4 -5 0
-10 -5 -10 -11z"/>
<path d="M12152 8537 c-10 -13 -26 -57 -20 -57 11 0 47 60 39 64 -5 3 -13 0
-19 -7z"/>
<path d="M12055 8380 c10 -11 20 -20 23 -20 3 0 -3 9 -13 20 -10 11 -20 20
-23 20 -3 0 3 -9 13 -20z"/>
<path d="M12090 8346 c0 -2 8 -10 18 -17 15 -13 16 -12 3 4 -13 16 -21 21 -21
13z"/>
<path d="M8411 8417 c2 -1 13 -9 24 -17 19 -14 19 -14 6 3 -7 9 -18 17 -24 17
-6 0 -8 -1 -6 -3z"/>
<path d="M7990 8419 c0 -5 5 -7 10 -4 6 3 10 8 10 11 0 2 -4 4 -10 4 -5 0 -10
-5 -10 -11z"/>
<path d="M8793 8213 c-13 -2 -23 -9 -23 -14 0 -13 21 -11 50 6 25 14 17 16
-27 8z"/>
<path d="M11502 5541 c4 -13 18 -16 19 -4 0 4 -5 9 -11 12 -7 2 -11 -2 -8 -8z"/>
<path d="M11538 5520 c-5 -35 4 -46 22 -25 12 14 5 55 -10 55 -4 0 -10 -14
-12 -30z"/>
<path d="M11364 5319 c-416 -586 -467 -659 -460 -659 2 0 49 61 103 136 54 74
115 159 136 187 20 29 65 93 99 142 34 50 88 126 121 169 54 74 93 136 84 136
-3 0 -40 -50 -83 -111z"/>
<path d="M10875 4624 c-9 -15 -12 -23 -6 -20 11 7 35 46 28 46 -3 0 -12 -12
-22 -26z"/>
<path d="M10829 4558 c-17 -24 -18 -29 -6 -19 18 14 42 51 33 51 -3 0 -15 -15
-27 -32z"/>
<path d="M10739 4423 c-13 -16 -12 -17 4 -4 16 13 21 21 13 21 -2 0 -10 -8
-17 -17z"/>
<path d="M10125 4105 c-16 -7 -39 -16 -49 -19 -10 -4 -17 -8 -14 -11 6 -7 108
28 108 37 0 11 -9 9 -45 -7z"/>
<path d="M9220 3765 c-11 -13 -10 -14 4 -9 9 3 16 10 16 15 0 13 -6 11 -20 -6z"/>
</g>
</svg>
